<?xml version="1.0" standalone="yes"?>

<svg version="1.1" viewBox="0.0 0.0 960.0 540.0" fill="none" stroke="none" stroke-linecap="square" stroke-miterlimit="10" xmlns="http://www.w3.org/2000/svg" xmlns:xlink="http://www.w3.org/1999/xlink"><clipPath id="g32fd13a201_0_0.0"><path d="m0 0l960.0 0l0 540.0l-960.0 0l0 -540.0z" clip-rule="nonzero"></path></clipPath><g clip-path="url(#g32fd13a201_0_0.0)"><path fill="#ffffff" d="m0 0l960.0 0l0 540.0l-960.0 0z" fill-rule="evenodd"></path><path fill="#eeeeee" d="m67.2269 396.28693l95.87401 0l0 97.480316l-95.87401 0z" fill-rule="evenodd"></path><path stroke="#595959" stroke-width="1.0" stroke-linejoin="round" stroke-linecap="butt" d="m67.2269 396.28693l95.87401 0l0 97.480316l-95.87401 0z" fill-rule="evenodd"></path><path fill="#000000" d="m116.11667 451.94708l0 -3.25l-5.90625 0l0 -1.53125l6.21875 -8.8125l1.359375 0l0 8.8125l1.84375 0l0 1.53125l-1.84375 0l0 3.25l-1.671875 0zm0 -4.78125l0 -6.140625l-4.25 6.140625l4.25 0z" fill-rule="nonzero"></path><path fill="#eeeeee" d="m188.83894 198.4301l95.87401 0l0 97.48033l-95.87401 0z" fill-rule="evenodd"></path><path stroke="#595959" stroke-width="1.0" stroke-linejoin="round" stroke-linecap="butt" d="m188.83894 198.4301l95.87401 0l0 97.48033l-95.87401 0z" fill-rule="evenodd"></path><path fill="#000000" d="m241.15059 252.48088l0 1.609375l-8.984375 0q-0.015625 -0.609375 0.1875 -1.15625q0.34375 -0.921875 1.09375 -1.8125q0.765625 -0.890625 2.1875 -2.0625q2.21875 -1.8125 3.0 -2.875q0.78125 -1.0625 0.78125 -2.015625q0 -0.984375 -0.71875 -1.671875q-0.703125 -0.6875 -1.84375 -0.6875q-1.203125 0 -1.9375 0.734375q-0.71875 0.71875 -0.71875 2.0l-1.71875 -0.171875q0.171875 -1.921875 1.328125 -2.921875q1.15625 -1.015625 3.09375 -1.015625q1.953125 0 3.09375 1.09375q1.140625 1.078125 1.140625 2.6875q0 0.8125 -0.34375 1.609375q-0.328125 0.78125 -1.109375 1.65625q-0.765625 0.859375 -2.5625 2.390625q-1.5 1.265625 -1.9375 1.71875q-0.421875 0.4375 -0.703125 0.890625l6.671875 0z" fill-rule="nonzero"></path><path fill="#eeeeee" d="m310.451 396.28693l95.87399 0l0 97.480316l-95.87399 0z" fill-rule="evenodd"></path><path stroke="#595959" stroke-width="1.0" stroke-linejoin="round" stroke-linecap="butt" d="m310.451 396.28693l95.87399 0l0 97.480316l-95.87399 0z" fill-rule="evenodd"></path><path fill="#000000" d="m362.65326 441.68146l-1.65625 0.125q-0.21875 -0.984375 -0.640625 -1.421875q-0.671875 -0.71875 -1.65625 -0.71875q-0.8125 0 -1.40625 0.4375q-0.796875 0.578125 -1.25 1.6875q-0.453125 1.09375 -0.46875 3.140625q0.609375 -0.921875 1.46875 -1.359375q0.875 -0.453125 1.828125 -0.453125q1.671875 0 2.84375 1.234375q1.171875 1.234375 1.171875 3.171875q0 1.28125 -0.546875 2.390625q-0.546875 1.09375 -1.515625 1.6875q-0.96875 0.578125 -2.1875 0.578125q-2.09375 0 -3.40625 -1.53125q-1.3125 -1.546875 -1.3125 -5.0625q0 -3.953125 1.453125 -5.734375q1.265625 -1.5625 3.421875 -1.5625q1.609375 0 2.625 0.90625q1.03125 0.890625 1.234375 2.484375zm-6.8125 5.859375q0 0.859375 0.359375 1.65625q0.375 0.78125 1.03125 1.203125q0.65625 0.40625 1.375 0.40625q1.0625 0 1.8125 -0.84375q0.765625 -0.859375 0.765625 -2.328125q0 -1.40625 -0.75 -2.21875q-0.75 -0.8125 -1.890625 -0.8125q-1.125 0 -1.921875 0.8125q-0.78125 0.8125 -0.78125 2.125z" fill-rule="nonzero"></path><path fill="#eeeeee" d="m432.06302 46.232536l95.87399 0l0 97.48031l-95.87399 0z" fill-rule="evenodd"></path><path stroke="#595959" stroke-width="1.0" stroke-linejoin="round" stroke-linecap="butt" d="m432.06302 46.232536l95.87399 0l0 97.48031l-95.87399 0z" fill-rule="evenodd"></path><path fill="#000000" d="m481.8903 101.89269l-1.671875 0l0 -10.640625q-0.59375 0.578125 -1.578125 1.15625q-0.984375 0.5625 -1.765625 0.859375l0 -1.625q1.40625 -0.65625 2.453125 -1.59375q1.046875 -0.9375 1.484375 -1.8125l1.078125 0l0 13.65625z" fill-rule="nonzero"></path><path fill="#eeeeee" d="m553.67505 396.28696l95.87402 0l0 97.480286l-95.87402 0z" fill-rule="evenodd"></path><path stroke="#595959" stroke-width="1.0" stroke-linejoin="round" stroke-linecap="butt" d="m553.67505 396.28696l95.87402 0l0 97.480286l-95.87402 0z" fill-rule="evenodd"></path><path fill="#000000" d="m599.78357 444.5721q-1.046875 -0.375 -1.546875 -1.078125q-0.5 -0.71875 -0.5 -1.703125q0 -1.484375 1.0625 -2.484375q1.078125 -1.015625 2.84375 -1.015625q1.78125 0 2.859375 1.03125q1.09375 1.03125 1.09375 2.515625q0 0.953125 -0.5 1.65625q-0.484375 0.703125 -1.5 1.078125q1.25 0.40625 1.90625 1.3125q0.65625 0.90625 0.65625 2.171875q0 1.75 -1.234375 2.9375q-1.234375 1.1875 -3.25 1.1875q-2.015625 0 -3.25 -1.1875q-1.234375 -1.203125 -1.234375 -2.984375q0 -1.328125 0.671875 -2.21875q0.671875 -0.890625 1.921875 -1.21875zm-0.328125 -2.828125q0 0.96875 0.609375 1.578125q0.625 0.609375 1.625 0.609375q0.953125 0 1.5625 -0.609375q0.625 -0.609375 0.625 -1.484375q0 -0.921875 -0.640625 -1.546875q-0.625 -0.625 -1.578125 -0.625q-0.953125 0 -1.578125 0.609375q-0.625 0.609375 -0.625 1.46875zm-0.546875 6.28125q0 0.71875 0.328125 1.390625q0.34375 0.65625 1.015625 1.03125q0.671875 0.359375 1.4375 0.359375q1.203125 0 1.984375 -0.765625q0.78125 -0.78125 0.78125 -1.96875q0 -1.203125 -0.8125 -1.984375q-0.796875 -0.796875 -2.0 -0.796875q-1.1875 0 -1.96875 0.78125q-0.765625 0.78125 -0.765625 1.953125z" fill-rule="nonzero"></path><path fill="#eeeeee" d="m675.2871 198.4301l95.87402 0l0 97.48033l-95.87402 0z" fill-rule="evenodd"></path><path stroke="#595959" stroke-width="1.0" stroke-linejoin="round" stroke-linecap="butt" d="m675.2871 198.4301l95.87402 0l0 97.48033l-95.87402 0z" fill-rule="evenodd"></path><path fill="#000000" d="m718.8331 250.4965l1.671875 -0.21875q0.28125 1.421875 0.96875 2.046875q0.703125 0.625 1.6875 0.625q1.1875 0 2.0 -0.8125q0.8125 -0.828125 0.8125 -2.03125q0 -1.140625 -0.765625 -1.890625q-0.75 -0.75 -1.90625 -0.75q-0.46875 0 -1.171875 0.1875l0.1875 -1.46875q0.15625 0.015625 0.265625 0.015625q1.0625 0 1.90625 -0.546875q0.859375 -0.5625 0.859375 -1.71875q0 -0.921875 -0.625 -1.515625q-0.609375 -0.609375 -1.59375 -0.609375q-0.96875 0 -1.625 0.609375q-0.640625 0.609375 -0.828125 1.84375l-1.671875 -0.296875q0.296875 -1.6875 1.375 -2.609375q1.09375 -0.921875 2.71875 -0.921875q1.109375 0 2.046875 0.484375q0.9375 0.46875 1.421875 1.296875q0.5 0.828125 0.5 1.75q0 0.890625 -0.46875 1.609375q-0.46875 0.71875 -1.40625 1.15625q1.21875 0.265625 1.875 1.15625q0.671875 0.875 0.671875 2.1875q0 1.78125 -1.296875 3.015625q-1.296875 1.234375 -3.28125 1.234375q-1.796875 0 -2.984375 -1.0625q-1.171875 -1.0625 -1.34375 -2.765625z" fill-rule="nonzero"></path><path fill="#eeeeee" d="m796.8992 396.28693l95.87396 0l0 97.480316l-95.87396 0z" fill-rule="evenodd"></path><path stroke="#595959" stroke-width="1.0" stroke-linejoin="round" stroke-linecap="butt" d="m796.8992 396.28693l95.87396 0l0 97.480316l-95.87396 0z" fill-rule="evenodd"></path><path fill="#000000" d="m840.6952 448.80646l1.59375 -0.15625q0.203125 1.140625 0.78125 1.65625q0.578125 0.5 1.484375 0.5q0.765625 0 1.34375 -0.34375q0.578125 -0.359375 0.953125 -0.953125q0.375 -0.59375 0.625 -1.59375q0.25 -1.0 0.25 -2.03125q0 -0.109375 -0.015625 -0.34375q-0.5 0.796875 -1.375 1.296875q-0.859375 0.5 -1.875 0.5q-1.6875 0 -2.859375 -1.21875q-1.171875 -1.234375 -1.171875 -3.234375q0 -2.078125 1.21875 -3.328125q1.234375 -1.265625 3.0625 -1.265625q1.328125 0 2.421875 0.71875q1.109375 0.703125 1.671875 2.03125q0.578125 1.328125 0.578125 3.828125q0 2.609375 -0.578125 4.15625q-0.5625 1.546875 -1.6875 2.359375q-1.109375 0.796875 -2.609375 0.796875q-1.59375 0 -2.609375 -0.890625q-1.0 -0.890625 -1.203125 -2.484375zm6.828125 -6.0q0 -1.4375 -0.765625 -2.28125q-0.765625 -0.859375 -1.84375 -0.859375q-1.109375 0 -1.9375 0.921875q-0.828125 0.90625 -0.828125 2.34375q0 1.3125 0.78125 2.125q0.796875 0.796875 1.9375 0.796875q1.171875 0 1.90625 -0.796875q0.75 -0.8125 0.75 -2.25z" fill-rule="nonzero"></path><path fill="#eeeeee" d="m310.4498 396.28693l95.87399 0l0 97.480316l-95.87399 0z" fill-rule="evenodd"></path><path stroke="#595959" stroke-width="1.0" stroke-linejoin="round" stroke-linecap="butt" d="m310.4498 396.28693l95.87399 0l0 97.480316l-95.87399 0z" fill-rule="evenodd"></path><path fill="#000000" d="m353.9802 448.38458l1.765625 -0.15625q0.1875 1.28125 0.890625 1.9375q0.71875 0.640625 1.71875 0.640625q1.203125 0 2.03125 -0.90625q0.84375 -0.90625 0.84375 -2.421875q0 -1.421875 -0.8125 -2.25q-0.796875 -0.828125 -2.09375 -0.828125q-0.796875 0 -1.453125 0.375q-0.640625 0.359375 -1.015625 0.953125l-1.578125 -0.203125l1.328125 -7.0l6.765625 0l0 1.609375l-5.4375 0l-0.734375 3.640625q1.234375 -0.84375 2.578125 -0.84375q1.78125 0 3.0 1.234375q1.234375 1.234375 1.234375 3.171875q0 1.84375 -1.078125 3.1875q-1.3125 1.65625 -3.578125 1.65625q-1.859375 0 -3.03125 -1.03125q-1.171875 -1.046875 -1.34375 -2.765625z" fill-rule="nonzero"></path><path fill="#eeeeee" d="m553.67535 396.28693l95.87402 0l0 97.480316l-95.87402 0z" fill-rule="evenodd"></path><path stroke="#595959" stroke-width="1.0" stroke-linejoin="round" stroke-linecap="butt" d="m553.67535 396.28693l95.87402 0l0 97.480316l-95.87402 0z" fill-rule="evenodd"></path><path fill="#000000" d="m605.8776 441.68146l-1.65625 0.125q-0.21875 -0.984375 -0.640625 -1.421875q-0.671875 -0.71875 -1.65625 -0.71875q-0.8125 0 -1.40625 0.4375q-0.796875 0.578125 -1.25 1.6875q-0.453125 1.09375 -0.46875 3.140625q0.609375 -0.921875 1.46875 -1.359375q0.875 -0.453125 1.828125 -0.453125q1.671875 0 2.84375 1.234375q1.171875 1.234375 1.171875 3.171875q0 1.28125 -0.546875 2.390625q-0.546875 1.09375 -1.515625 1.6875q-0.96875 0.578125 -2.1875 0.578125q-2.09375 0 -3.40625 -1.53125q-1.3125 -1.546875 -1.3125 -5.0625q0 -3.953125 1.453125 -5.734375q1.265625 -1.5625 3.421875 -1.5625q1.609375 0 2.625 0.90625q1.03125 0.890625 1.234375 2.484375zm-6.8125 5.859375q0 0.859375 0.359375 1.65625q0.375 0.78125 1.03125 1.203125q0.65625 0.40625 1.375 0.40625q1.0625 0 1.8125 -0.84375q0.765625 -0.859375 0.765625 -2.328125q0 -1.40625 -0.75 -2.21875q-0.75 -0.8125 -1.890625 -0.8125q-1.125 0 -1.921875 0.8125q-0.78125 0.8125 -0.78125 2.125z" fill-rule="nonzero"></path><path fill="#eeeeee" d="m796.8994 396.28693l95.87402 0l0 97.480316l-95.87402 0z" fill-rule="evenodd"></path><path stroke="#595959" stroke-width="1.0" stroke-linejoin="round" stroke-linecap="butt" d="m796.8994 396.28693l95.87402 0l0 97.480316l-95.87402 0z" fill-rule="evenodd"></path><path fill="#000000" d="m849.1017 441.68146l-1.65625 0.125q-0.21875 -0.984375 -0.640625 -1.421875q-0.671875 -0.71875 -1.65625 -0.71875q-0.8125 0 -1.40625 0.4375q-0.796875 0.578125 -1.25 1.6875q-0.453125 1.09375 -0.46875 3.140625q0.609375 -0.921875 1.46875 -1.359375q0.875 -0.453125 1.828125 -0.453125q1.671875 0 2.84375 1.234375q1.171875 1.234375 1.171875 3.171875q0 1.28125 -0.546875 2.390625q-0.546875 1.09375 -1.515625 1.6875q-0.96875 0.578125 -2.1875 0.578125q-2.09375 0 -3.40625 -1.53125q-1.3125 -1.546875 -1.3125 -5.0625q0 -3.953125 1.453125 -5.734375q1.265625 -1.5625 3.421875 -1.5625q1.609375 0 2.625 0.90625q1.03125 0.890625 1.234375 2.484375zm-6.8125 5.859375q0 0.859375 0.359375 1.65625q0.375 0.78125 1.03125 1.203125q0.65625 0.40625 1.375 0.40625q1.0625 0 1.8125 -0.84375q0.765625 -0.859375 0.765625 -2.328125q0 -1.40625 -0.75 -2.21875q-0.75 -0.8125 -1.890625 -0.8125q-1.125 0 -1.921875 0.8125q-0.78125 0.8125 -0.78125 2.125z" fill-rule="nonzero"></path><path fill="#eeeeee" d="m796.89825 396.28693l95.87396 0l0 97.480316l-95.87396 0z" fill-rule="evenodd"></path><path stroke="#595959" stroke-width="1.0" stroke-linejoin="round" stroke-linecap="butt" d="m796.89825 396.28693l95.87396 0l0 97.480316l-95.87396 0z" fill-rule="evenodd"></path><path fill="#000000" d="m840.55365 440.13458l0 -1.609375l8.796875 0l0 1.296875q-1.296875 1.375 -2.578125 3.671875q-1.265625 2.296875 -1.96875 4.71875q-0.5 1.703125 -0.640625 3.734375l-1.71875 0q0.03125 -1.609375 0.625 -3.875q0.609375 -2.28125 1.734375 -4.390625q1.140625 -2.109375 2.40625 -3.546875l-6.65625 0z" fill-rule="nonzero"></path><path fill="#000000" fill-opacity="0.0" d="m480.00003 143.71284l-195.2756 103.46457" fill-rule="evenodd"></path><path stroke="#595959" stroke-width="1.0" stroke-linejoin="round" stroke-linecap="butt" d="m480.00003 143.71286l-189.97382 100.65546" fill-rule="evenodd"></path><path fill="#595959" stroke="#595959" stroke-width="1.0" stroke-linecap="butt" d="m289.2529 242.9088l-3.2366943 3.5841827l4.783325 -0.6651459z" fill-rule="evenodd"></path><path fill="#000000" fill-opacity="0.0" d="m480.00003 143.71284l195.2756 103.46457" fill-rule="evenodd"></path><path stroke="#595959" stroke-width="1.0" stroke-linejoin="round" stroke-linecap="butt" d="m480.00003 143.71286l189.97379 100.65546" fill-rule="evenodd"></path><path fill="#595959" stroke="#595959" stroke-width="1.0" stroke-linecap="butt" d="m669.2005 245.82784l4.783325 0.6651459l-3.2366943 -3.5841827z" fill-rule="evenodd"></path><path fill="#000000" fill-opacity="0.0" d="m236.77594 295.91043l-121.60629 100.37793" fill-rule="evenodd"></path><path stroke="#595959" stroke-width="1.0" stroke-linejoin="round" stroke-linecap="butt" d="m236.77594 295.9104l-116.979034 96.55847" fill-rule="evenodd"></path><path fill="#595959" stroke="#595959" stroke-width="1.0" stroke-linecap="butt" d="m118.74544 391.19507l-2.4483566 4.162689l4.551285 -1.6150208z" fill-rule="evenodd"></path><path fill="#000000" fill-opacity="0.0" d="m236.77594 295.91043l121.60629 100.37793" fill-rule="evenodd"></path><path stroke="#595959" stroke-width="1.0" stroke-linejoin="round" stroke-linecap="butt" d="m236.77594 295.9104l116.979065 96.5585" fill-rule="evenodd"></path><path fill="#595959" stroke="#595959" stroke-width="1.0" stroke-linecap="butt" d="m352.70355 393.74274l4.5512695 1.6150208l-2.4483643 -4.162689z" fill-rule="evenodd"></path><path fill="#000000" fill-opacity="0.0" d="m723.2241 295.91043l-121.60632 100.37793" fill-rule="evenodd"></path><path stroke="#595959" stroke-width="1.0" stroke-linejoin="round" stroke-linecap="butt" d="m723.22406 295.9104l-116.979004 96.55847" fill-rule="evenodd"></path><path fill="#595959" stroke="#595959" stroke-width="1.0" stroke-linecap="butt" d="m605.1936 391.19507l-2.4483643 4.162689l4.5513306 -1.6150208z" fill-rule="evenodd"></path><path fill="#000000" fill-opacity="0.0" d="m723.2241 295.91043l121.60626 100.37793" fill-rule="evenodd"></path><path stroke="#595959" stroke-width="1.0" stroke-linejoin="round" stroke-linecap="butt" d="m723.22406 295.9104l116.979126 96.55847" fill-rule="evenodd"></path><path fill="#595959" stroke="#595959" stroke-width="1.0" stroke-linecap="butt" d="m839.1517 393.74274l4.5512695 1.6150208l-2.4483643 -4.162689z" fill-rule="evenodd"></path><path fill="#000000" fill-opacity="0.0" d="m396.44095 59.0581l0 0c0 -9.918129 8.040222 -17.958363 17.958374 -17.958363l131.20139 0c4.7628174 0 9.330627 1.8920364 12.698486 5.25988c3.3677979 3.3678474 5.2598877 7.935627 5.2598877 12.6984825l0 71.8313c0 9.918137 -8.040283 17.958359 -17.958374 17.958359l-131.20139 0c-9.918152 0 -17.958374 -8.040222 -17.958374 -17.958359z" fill-rule="evenodd"></path><path stroke="#ff9900" stroke-width="3.0" stroke-linejoin="round" stroke-linecap="butt" d="m396.44095 59.0581l0 0c0 -9.918129 8.040222 -17.958363 17.958374 -17.958363l131.20139 0c4.7628174 0 9.330627 1.8920364 12.698486 5.25988c3.3677979 3.3678474 5.2598877 7.935627 5.2598877 12.6984825l0 71.8313c0 9.918137 -8.040283 17.958359 -17.958374 17.958359l-131.20139 0c-9.918152 0 -17.958374 -8.040222 -17.958374 -17.958359z" fill-rule="evenodd"></path><path fill="#000000" fill-opacity="0.0" d="m166.91602 211.25496l0 0c0 -9.918137 8.040222 -17.958374 17.958359 -17.958374l606.0045 0c4.7628784 0 9.330627 1.8920441 12.698486 5.2598877c3.367859 3.3678436 5.2598877 7.935623 5.2598877 12.698486l0 71.83128c0 9.918152 -8.040222 17.958374 -17.958374 17.958374l-606.0045 0c-9.918137 0 -17.958359 -8.040222 -17.958359 -17.958374z" fill-rule="evenodd"></path><path stroke="#ff9900" stroke-width="3.0" stroke-linejoin="round" stroke-linecap="butt" d="m166.91602 211.25496l0 0c0 -9.918137 8.040222 -17.958374 17.958359 -17.958374l606.0045 0c4.7628784 0 9.330627 1.8920441 12.698486 5.2598877c3.367859 3.3678436 5.2598877 7.935623 5.2598877 12.698486l0 71.83128c0 9.918152 -8.040222 17.958374 -17.958374 17.958374l-606.0045 0c-9.918137 0 -17.958359 -8.040222 -17.958359 -17.958374z" fill-rule="evenodd"></path><path fill="#000000" fill-opacity="0.0" d="m46.750656 409.1106l0 0c0 -9.918121 8.040234 -17.958374 17.958366 -17.958374l829.50055 0c4.7628784 0 9.330627 1.8920593 12.698486 5.2598877c3.367859 3.367859 5.2598877 7.9356384 5.2598877 12.698486l0 71.8313c0 9.918121 -8.040222 17.958374 -17.958374 17.958374l-829.50055 0c-9.918133 0 -17.958366 -8.040253 -17.958366 -17.958374z" fill-rule="evenodd"></path><path stroke="#ff9900" stroke-width="3.0" stroke-linejoin="round" stroke-linecap="butt" d="m46.750656 409.1106l0 0c0 -9.918121 8.040234 -17.958374 17.958366 -17.958374l829.50055 0c4.7628784 0 9.330627 1.8920593 12.698486 5.2598877c3.367859 3.367859 5.2598877 7.9356384 5.2598877 12.698486l0 71.8313c0 9.918121 -8.040222 17.958374 -17.958374 17.958374l-829.50055 0c-9.918133 0 -17.958366 -8.040253 -17.958366 -17.958374z" fill-rule="evenodd"></path></g></svg>

