<?xml version="1.0" standalone="yes"?>

<svg version="1.1" viewBox="0.0 0.0 960.0 540.0" fill="none" stroke="none" stroke-linecap="square" stroke-miterlimit="10" xmlns="http://www.w3.org/2000/svg" xmlns:xlink="http://www.w3.org/1999/xlink"><clipPath id="g32fd13a201_0_54.0"><path d="m0 0l960.0 0l0 540.0l-960.0 0l0 -540.0z" clip-rule="nonzero"></path></clipPath><g clip-path="url(#g32fd13a201_0_54.0)"><path fill="#ffffff" d="m0 0l960.0 0l0 540.0l-960.0 0z" fill-rule="evenodd"></path><path fill="#000000" fill-opacity="0.0" d="m632.1781 159.67648c-19.112854 1.5726166 -17.300049 -11.732712 -38.469788 13.065613c-21.169739 24.79834 -69.919495 84.43439 -88.54855 135.72443c-18.629059 51.29001 -44.516205 140.56384 -23.225739 172.01575c21.290466 31.451874 123.02496 51.897186 150.9685 16.695526c27.943604 -35.20166 4.2331543 -187.62292 16.692932 -227.90552c12.459717 -40.282578 48.267273 3.8709717 58.065613 -13.790024c9.79834 -17.66098 13.304871 -76.20822 0.72442627 -92.17584c-12.580505 -15.967636 -57.094543 -5.202545 -76.2074 -3.6299286z" fill-rule="evenodd"></path><path stroke="#0000ff" stroke-width="3.0" stroke-linejoin="round" stroke-linecap="butt" d="m632.1781 159.67648c-19.112854 1.5726166 -17.300049 -11.732712 -38.469788 13.065613c-21.169739 24.79834 -69.919495 84.43439 -88.54855 135.72443c-18.629059 51.29001 -44.516205 140.56384 -23.225739 172.01575c21.290466 31.451874 123.02496 51.897186 150.9685 16.695526c27.943604 -35.20166 4.2331543 -187.62292 16.692932 -227.90552c12.459717 -40.282578 48.267273 3.8709717 58.065613 -13.790024c9.79834 -17.66098 13.304871 -76.20822 0.72442627 -92.17584c-12.580505 -15.967636 -57.094543 -5.202545 -76.2074 -3.6299286z" fill-rule="evenodd"></path><path fill="#000000" fill-opacity="0.0" d="m354.30246 303.7988c31.338135 -14.503479 70.965454 -31.85608 92.461945 -0.776886c21.49649 31.079163 70.44531 154.74847 36.51706 187.25195c-33.928253 32.50354 -199.94269 24.085327 -240.08661 7.769043c-40.14392 -16.316284 -3.3670197 -87.66666 -0.7769165 -105.66666c2.5901184 -18.0 -2.329834 12.429565 16.317596 -2.3333435c18.6474 -14.762909 64.22879 -71.7406 95.566925 -86.24411z" fill-rule="evenodd"></path><path stroke="#6aa84f" stroke-width="3.0" stroke-linejoin="round" stroke-linecap="butt" d="m354.30246 303.7988c31.338135 -14.503479 70.965454 -31.85608 92.461945 -0.776886c21.49649 31.079163 70.44531 154.74847 36.51706 187.25195c-33.928253 32.50354 -199.94269 24.085327 -240.08661 7.769043c-40.14392 -16.316284 -3.3670197 -87.66666 -0.7769165 -105.66666c2.5901184 -18.0 -2.329834 12.429565 16.317596 -2.3333435c18.6474 -14.762909 64.22879 -71.7406 95.566925 -86.24411z" fill-rule="evenodd"></path><path fill="#000000" fill-opacity="0.0" d="m560.20154 109.55345c-33.539368 43.769897 -195.79831 145.81277 -243.19421 192.69029c-47.395874 46.877502 -27.842957 71.61066 -41.18109 88.5748c-13.338165 16.964142 -32.63211 -3.6246643 -38.84778 13.209961c-6.2156525 16.834656 5.1797943 71.4812 1.5538025 87.79791c-3.6259766 16.316711 -8.158356 8.937012 -23.309708 10.102356c-15.151352 1.1653748 -66.30359 52.83246 -67.59842 -3.1102295c-1.2948456 -55.942688 -1.940506 -256.01355 59.82939 -332.54593c61.769897 -76.53237 251.99869 -117.1951 310.79 -126.6483c58.79138 -9.453194 75.497375 26.15923 41.958008 69.92914z" fill-rule="evenodd"></path><path stroke="#ff9900" stroke-width="3.0" stroke-linejoin="round" stroke-linecap="butt" d="m560.20154 109.55345c-33.539368 43.769897 -195.79831 145.81277 -243.19421 192.69029c-47.395874 46.877502 -27.842957 71.61066 -41.18109 88.5748c-13.338165 16.964142 -32.63211 -3.6246643 -38.84778 13.209961c-6.2156525 16.834656 5.1797943 71.4812 1.5538025 87.79791c-3.6259766 16.316711 -8.158356 8.937012 -23.309708 10.102356c-15.151352 1.1653748 -66.30359 52.83246 -67.59842 -3.1102295c-1.2948456 -55.942688 -1.940506 -256.01355 59.82939 -332.54593c61.769897 -76.53237 251.99869 -117.1951 310.79 -126.6483c58.79138 -9.453194 75.497375 26.15923 41.958008 69.92914z" fill-rule="evenodd"></path><path fill="#eeeeee" d="m204.2287 312.19604l64.031494 0l0 69.13385l-64.031494 0z" fill-rule="evenodd"></path><path stroke="#595959" stroke-width="1.0" stroke-linejoin="round" stroke-linecap="butt" d="m204.2287 312.19604l64.031494 0l0 69.13385l-64.031494 0z" fill-rule="evenodd"></path><path fill="#000000" d="m231.85345 350.08923l1.671875 -0.21875q0.28125 1.421875 0.96875 2.046875q0.703125 0.625 1.6875 0.625q1.1875 0 2.0 -0.8125q0.8125 -0.828125 0.8125 -2.03125q0 -1.140625 -0.765625 -1.890625q-0.75 -0.75 -1.90625 -0.75q-0.46875 0 -1.171875 0.1875l0.1875 -1.46875q0.15625 0.015625 0.265625 0.015625q1.0625 0 1.90625 -0.546875q0.859375 -0.5625 0.859375 -1.71875q0 -0.921875 -0.625 -1.515625q-0.609375 -0.609375 -1.59375 -0.609375q-0.96875 0 -1.625 0.609375q-0.640625 0.609375 -0.828125 1.84375l-1.671875 -0.296875q0.296875 -1.6875 1.375 -2.609375q1.09375 -0.921875 2.71875 -0.921875q1.109375 0 2.046875 0.484375q0.9375 0.46875 1.421875 1.296875q0.5 0.828125 0.5 1.75q0 0.890625 -0.46875 1.609375q-0.46875 0.71875 -1.40625 1.15625q1.21875 0.265625 1.875 1.15625q0.671875 0.875 0.671875 2.1875q0 1.78125 -1.296875 3.015625q-1.296875 1.234375 -3.28125 1.234375q-1.796875 0 -2.984375 -1.0625q-1.171875 -1.0625 -1.34375 -2.765625z" fill-rule="nonzero"></path><path fill="#eeeeee" d="m285.48077 171.86311l64.031494 0l0 69.13385l-64.031494 0z" fill-rule="evenodd"></path><path stroke="#595959" stroke-width="1.0" stroke-linejoin="round" stroke-linecap="butt" d="m285.48077 171.86311l64.031494 0l0 69.13385l-64.031494 0z" fill-rule="evenodd"></path><path fill="#000000" d="m321.87115 211.74066l0 1.609375l-8.984375 0q-0.015625 -0.609375 0.1875 -1.15625q0.34375 -0.921875 1.09375 -1.8125q0.765625 -0.890625 2.1875 -2.0625q2.21875 -1.8125 3.0 -2.875q0.78125 -1.0625 0.78125 -2.015625q0 -0.984375 -0.71875 -1.671875q-0.703125 -0.6875 -1.84375 -0.6875q-1.203125 0 -1.9375 0.734375q-0.71875 0.71875 -0.71875 2.0l-1.71875 -0.171875q0.171875 -1.921875 1.328125 -2.921875q1.15625 -1.015625 3.09375 -1.015625q1.953125 0 3.09375 1.09375q1.140625 1.078125 1.140625 2.6875q0 0.8125 -0.34375 1.609375q-0.328125 0.78125 -1.109375 1.65625q-0.765625 0.859375 -2.5625 2.390625q-1.5 1.265625 -1.9375 1.71875q-0.421875 0.4375 -0.703125 0.890625l6.671875 0z" fill-rule="nonzero"></path><path fill="#eeeeee" d="m366.73285 312.19604l64.031525 0l0 69.13385l-64.031525 0z" fill-rule="evenodd"></path><path stroke="#595959" stroke-width="1.0" stroke-linejoin="round" stroke-linecap="butt" d="m366.73285 312.19604l64.031525 0l0 69.13385l-64.031525 0z" fill-rule="evenodd"></path><path fill="#000000" d="m403.0139 343.41736l-1.65625 0.125q-0.21875 -0.984375 -0.640625 -1.421875q-0.671875 -0.71875 -1.65625 -0.71875q-0.8125 0 -1.40625 0.4375q-0.796875 0.578125 -1.25 1.6875q-0.453125 1.09375 -0.46875 3.140625q0.609375 -0.921875 1.46875 -1.359375q0.875 -0.453125 1.828125 -0.453125q1.671875 0 2.84375 1.234375q1.171875 1.234375 1.171875 3.171875q0 1.28125 -0.546875 2.390625q-0.546875 1.09375 -1.515625 1.6875q-0.96875 0.578125 -2.1875 0.578125q-2.09375 0 -3.40625 -1.53125q-1.3125 -1.546875 -1.3125 -5.0625q0 -3.953125 1.453125 -5.734375q1.265625 -1.5625 3.421875 -1.5625q1.609375 0 2.625 0.90625q1.03125 0.890625 1.234375 2.484375zm-6.8125 5.859375q0 0.859375 0.359375 1.65625q0.375 0.78125 1.03125 1.203125q0.65625 0.40625 1.375 0.40625q1.0625 0 1.8125 -0.84375q0.765625 -0.859375 0.765625 -2.328125q0 -1.40625 -0.75 -2.21875q-0.75 -0.8125 -1.890625 -0.8125q-1.125 0 -1.921875 0.8125q-0.78125 0.8125 -0.78125 2.125z" fill-rule="nonzero"></path><path fill="#eeeeee" d="m447.98495 63.9147l64.03146 0l0 69.13385l-64.03146 0z" fill-rule="evenodd"></path><path stroke="#595959" stroke-width="1.0" stroke-linejoin="round" stroke-linecap="butt" d="m447.98495 63.9147l64.03146 0l0 69.13385l-64.03146 0z" fill-rule="evenodd"></path><path fill="#000000" d="m481.89096 105.40163l-1.671875 0l0 -10.640625q-0.59375 0.578125 -1.578125 1.15625q-0.984375 0.5625 -1.765625 0.859375l0 -1.625q1.40625 -0.65625 2.453125 -1.59375q1.046875 -0.9375 1.484375 -1.8125l1.078125 0l0 13.65625z" fill-rule="nonzero"></path><path fill="#eeeeee" d="m529.23706 312.19604l64.031494 0l0 69.13385l-64.031494 0z" fill-rule="evenodd"></path><path stroke="#595959" stroke-width="1.0" stroke-linejoin="round" stroke-linecap="butt" d="m529.23706 312.19604l64.031494 0l0 69.13385l-64.031494 0z" fill-rule="evenodd"></path><path fill="#000000" d="m559.4243 346.30798q-1.046875 -0.375 -1.546875 -1.078125q-0.5 -0.71875 -0.5 -1.703125q0 -1.484375 1.0625 -2.484375q1.078125 -1.015625 2.84375 -1.015625q1.78125 0 2.859375 1.03125q1.09375 1.03125 1.09375 2.515625q0 0.953125 -0.5 1.65625q-0.484375 0.703125 -1.5 1.078125q1.25 0.40625 1.90625 1.3125q0.65625 0.90625 0.65625 2.171875q0 1.75 -1.234375 2.9375q-1.234375 1.1875 -3.25 1.1875q-2.015625 0 -3.25 -1.1875q-1.234375 -1.203125 -1.234375 -2.984375q0 -1.328125 0.671875 -2.21875q0.671875 -0.890625 1.921875 -1.21875zm-0.328125 -2.828125q0 0.96875 0.609375 1.578125q0.625 0.609375 1.625 0.609375q0.953125 0 1.5625 -0.609375q0.625 -0.609375 0.625 -1.484375q0 -0.921875 -0.640625 -1.546875q-0.625 -0.625 -1.578125 -0.625q-0.953125 0 -1.578125 0.609375q-0.625 0.609375 -0.625 1.46875zm-0.546875 6.28125q0 0.71875 0.328125 1.390625q0.34375 0.65625 1.015625 1.03125q0.671875 0.359375 1.4375 0.359375q1.203125 0 1.984375 -0.765625q0.78125 -0.78125 0.78125 -1.96875q0 -1.203125 -0.8125 -1.984375q-0.796875 -0.796875 -2.0 -0.796875q-1.1875 0 -1.96875 0.78125q-0.765625 0.78125 -0.765625 1.953125z" fill-rule="nonzero"></path><path fill="#eeeeee" d="m610.48914 171.86311l64.031494 0l0 69.13385l-64.031494 0z" fill-rule="evenodd"></path><path stroke="#595959" stroke-width="1.0" stroke-linejoin="round" stroke-linecap="butt" d="m610.48914 171.86311l64.031494 0l0 69.13385l-64.031494 0z" fill-rule="evenodd"></path><path fill="#000000" d="m638.3639 210.20941l1.59375 -0.15625q0.203125 1.140625 0.78125 1.65625q0.578125 0.5 1.484375 0.5q0.765625 0 1.34375 -0.34375q0.578125 -0.359375 0.953125 -0.953125q0.375 -0.59375 0.625 -1.59375q0.25 -1.0 0.25 -2.03125q0 -0.109375 -0.015625 -0.34375q-0.5 0.796875 -1.375 1.296875q-0.859375 0.5 -1.875 0.5q-1.6875 0 -2.859375 -1.21875q-1.171875 -1.234375 -1.171875 -3.234375q0 -2.078125 1.21875 -3.328125q1.234375 -1.265625 3.0625 -1.265625q1.328125 0 2.421875 0.71875q1.109375 0.703125 1.671875 2.03125q0.578125 1.328125 0.578125 3.828125q0 2.609375 -0.578125 4.15625q-0.5625 1.546875 -1.6875 2.359375q-1.109375 0.796875 -2.609375 0.796875q-1.59375 0 -2.609375 -0.890625q-1.0 -0.890625 -1.203125 -2.484375zm6.828125 -6.0q0 -1.4375 -0.765625 -2.28125q-0.765625 -0.859375 -1.84375 -0.859375q-1.109375 0 -1.9375 0.921875q-0.828125 0.90625 -0.828125 2.34375q0 1.3125 0.78125 2.125q0.796875 0.796875 1.9375 0.796875q1.171875 0 1.90625 -0.796875q0.75 -0.8125 0.75 -2.25z" fill-rule="nonzero"></path><path fill="#eeeeee" d="m691.7412 312.19604l64.031494 0l0 69.13385l-64.031494 0z" fill-rule="evenodd"></path><path stroke="#595959" stroke-width="1.0" stroke-linejoin="round" stroke-linecap="butt" d="m691.7412 312.19604l64.031494 0l0 69.13385l-64.031494 0z" fill-rule="evenodd"></path><path fill="#000000" d="m719.61597 350.54236l1.59375 -0.15625q0.203125 1.140625 0.78125 1.65625q0.578125 0.5 1.484375 0.5q0.765625 0 1.34375 -0.34375q0.578125 -0.359375 0.953125 -0.953125q0.375 -0.59375 0.625 -1.59375q0.25 -1.0 0.25 -2.03125q0 -0.109375 -0.015625 -0.34375q-0.5 0.796875 -1.375 1.296875q-0.859375 0.5 -1.875 0.5q-1.6875 0 -2.859375 -1.21875q-1.171875 -1.234375 -1.171875 -3.234375q0 -2.078125 1.21875 -3.328125q1.234375 -1.265625 3.0625 -1.265625q1.328125 0 2.421875 0.71875q1.109375 0.703125 1.671875 2.03125q0.578125 1.328125 0.578125 3.828125q0 2.609375 -0.578125 4.15625q-0.5625 1.546875 -1.6875 2.359375q-1.109375 0.796875 -2.609375 0.796875q-1.59375 0 -2.609375 -0.890625q-1.0 -0.890625 -1.203125 -2.484375zm6.828125 -6.0q0 -1.4375 -0.765625 -2.28125q-0.765625 -0.859375 -1.84375 -0.859375q-1.109375 0 -1.9375 0.921875q-0.828125 0.90625 -0.828125 2.34375q0 1.3125 0.78125 2.125q0.796875 0.796875 1.9375 0.796875q1.171875 0 1.90625 -0.796875q0.75 -0.8125 0.75 -2.25z" fill-rule="nonzero"></path><path fill="#eeeeee" d="m165.9226 406.95193l64.031494 0l0 69.13388l-64.031494 0z" fill-rule="evenodd"></path><path stroke="#595959" stroke-width="1.0" stroke-linejoin="round" stroke-linecap="butt" d="m165.9226 406.95193l64.031494 0l0 69.13388l-64.031494 0z" fill-rule="evenodd"></path><path fill="#000000" d="m198.89111 448.43887l0 -3.25l-5.90625 0l0 -1.53125l6.21875 -8.8125l1.359375 0l0 8.8125l1.84375 0l0 1.53125l-1.84375 0l0 3.25l-1.671875 0zm0 -4.78125l0 -6.140625l-4.25 6.140625l4.25 0z" fill-rule="nonzero"></path><path fill="#eeeeee" d="m242.53477 406.95193l64.03151 0l0 69.13388l-64.03151 0z" fill-rule="evenodd"></path><path stroke="#595959" stroke-width="1.0" stroke-linejoin="round" stroke-linecap="butt" d="m242.53477 406.95193l64.03151 0l0 69.13388l-64.03151 0z" fill-rule="evenodd"></path><path fill="#000000" d="m270.14392 444.87637l1.765625 -0.15625q0.1875 1.28125 0.890625 1.9375q0.71875 0.640625 1.71875 0.640625q1.203125 0 2.03125 -0.90625q0.84375 -0.90625 0.84375 -2.421875q0 -1.421875 -0.8125 -2.25q-0.796875 -0.828125 -2.09375 -0.828125q-0.796875 0 -1.453125 0.375q-0.640625 0.359375 -1.015625 0.953125l-1.578125 -0.203125l1.328125 -7.0l6.765625 0l0 1.609375l-5.4375 0l-0.734375 3.640625q1.234375 -0.84375 2.578125 -0.84375q1.78125 0 3.0 1.234375q1.234375 1.234375 1.234375 3.171875q0 1.84375 -1.078125 3.1875q-1.3125 1.65625 -3.578125 1.65625q-1.859375 0 -3.03125 -1.03125q-1.171875 -1.046875 -1.34375 -2.765625z" fill-rule="nonzero"></path><path fill="#eeeeee" d="m366.73206 312.19604l64.031494 0l0 69.13385l-64.031494 0z" fill-rule="evenodd"></path><path stroke="#595959" stroke-width="1.0" stroke-linejoin="round" stroke-linecap="butt" d="m366.73206 312.19604l64.031494 0l0 69.13385l-64.031494 0z" fill-rule="evenodd"></path><path fill="#000000" d="m403.0131 343.41736l-1.65625 0.125q-0.21875 -0.984375 -0.640625 -1.421875q-0.671875 -0.71875 -1.65625 -0.71875q-0.8125 0 -1.40625 0.4375q-0.796875 0.578125 -1.25 1.6875q-0.453125 1.09375 -0.46875 3.140625q0.609375 -0.921875 1.46875 -1.359375q0.875 -0.453125 1.828125 -0.453125q1.671875 0 2.84375 1.234375q1.171875 1.234375 1.171875 3.171875q0 1.28125 -0.546875 2.390625q-0.546875 1.09375 -1.515625 1.6875q-0.96875 0.578125 -2.1875 0.578125q-2.09375 0 -3.40625 -1.53125q-1.3125 -1.546875 -1.3125 -5.0625q0 -3.953125 1.453125 -5.734375q1.265625 -1.5625 3.421875 -1.5625q1.609375 0 2.625 0.90625q1.03125 0.890625 1.234375 2.484375zm-6.8125 5.859375q0 0.859375 0.359375 1.65625q0.375 0.78125 1.03125 1.203125q0.65625 0.40625 1.375 0.40625q1.0625 0 1.8125 -0.84375q0.765625 -0.859375 0.765625 -2.328125q0 -1.40625 -0.75 -2.21875q-0.75 -0.8125 -1.890625 -0.8125q-1.125 0 -1.921875 0.8125q-0.78125 0.8125 -0.78125 2.125z" fill-rule="nonzero"></path><path fill="#eeeeee" d="m328.426 406.95193l64.031494 0l0 69.13388l-64.031494 0z" fill-rule="evenodd"></path><path stroke="#595959" stroke-width="1.0" stroke-linejoin="round" stroke-linecap="butt" d="m328.426 406.95193l64.031494 0l0 69.13388l-64.031494 0z" fill-rule="evenodd"></path><path fill="#000000" d="m356.16013 436.62637l0 -1.609375l8.796875 0l0 1.296875q-1.296875 1.375 -2.578125 3.671875q-1.265625 2.296875 -1.96875 4.71875q-0.5 1.703125 -0.640625 3.734375l-1.71875 0q0.03125 -1.609375 0.625 -3.875q0.609375 -2.28125 1.734375 -4.390625q1.140625 -2.109375 2.40625 -3.546875l-6.65625 0z" fill-rule="nonzero"></path><path fill="#eeeeee" d="m405.03815 406.95193l64.031494 0l0 69.13388l-64.031494 0z" fill-rule="evenodd"></path><path stroke="#595959" stroke-width="1.0" stroke-linejoin="round" stroke-linecap="butt" d="m405.03815 406.95193l64.031494 0l0 69.13388l-64.031494 0z" fill-rule="evenodd"></path><path fill="#000000" d="m435.22543 441.06387q-1.046875 -0.375 -1.546875 -1.078125q-0.5 -0.71875 -0.5 -1.703125q0 -1.484375 1.0625 -2.484375q1.078125 -1.015625 2.84375 -1.015625q1.78125 0 2.859375 1.03125q1.09375 1.03125 1.09375 2.515625q0 0.953125 -0.5 1.65625q-0.484375 0.703125 -1.5 1.078125q1.25 0.40625 1.90625 1.3125q0.65625 0.90625 0.65625 2.171875q0 1.75 -1.234375 2.9375q-1.234375 1.1875 -3.25 1.1875q-2.015625 0 -3.25 -1.1875q-1.234375 -1.203125 -1.234375 -2.984375q0 -1.328125 0.671875 -2.21875q0.671875 -0.890625 1.921875 -1.21875zm-0.328125 -2.828125q0 0.96875 0.609375 1.578125q0.625 0.609375 1.625 0.609375q0.953125 0 1.5625 -0.609375q0.625 -0.609375 0.625 -1.484375q0 -0.921875 -0.640625 -1.546875q-0.625 -0.625 -1.578125 -0.625q-0.953125 0 -1.578125 0.609375q-0.625 0.609375 -0.625 1.46875zm-0.546875 6.28125q0 0.71875 0.328125 1.390625q0.34375 0.65625 1.015625 1.03125q0.671875 0.359375 1.4375 0.359375q1.203125 0 1.984375 -0.765625q0.78125 -0.78125 0.78125 -1.96875q0 -1.203125 -0.8125 -1.984375q-0.796875 -0.796875 -2.0 -0.796875q-1.1875 0 -1.96875 0.78125q-0.765625 0.78125 -0.765625 1.953125z" fill-rule="nonzero"></path><path fill="#eeeeee" d="m529.23724 312.19604l64.031494 0l0 69.13385l-64.031494 0z" fill-rule="evenodd"></path><path stroke="#595959" stroke-width="1.0" stroke-linejoin="round" stroke-linecap="butt" d="m529.23724 312.19604l64.031494 0l0 69.13385l-64.031494 0z" fill-rule="evenodd"></path><path fill="#000000" d="m557.9554 353.68298l-1.671875 0l0 -10.640625q-0.59375 0.578125 -1.578125 1.15625q-0.984375 0.5625 -1.765625 0.859375l0 -1.625q1.40625 -0.65625 2.453125 -1.59375q1.046875 -0.9375 1.484375 -1.8125l1.078125 0l0 13.65625zm4.0788574 -6.703125q0 -2.421875 0.5 -3.890625q0.5 -1.46875 1.46875 -2.265625q0.984375 -0.796875 2.46875 -0.796875q1.09375 0 1.921875 0.4375q0.828125 0.4375 1.359375 1.28125q0.546875 0.828125 0.84375 2.015625q0.3125 1.1875 0.3125 3.21875q0 2.390625 -0.5 3.859375q-0.484375 1.46875 -1.46875 2.28125q-0.96875 0.796875 -2.46875 0.796875q-1.96875 0 -3.078125 -1.40625q-1.359375 -1.703125 -1.359375 -5.53125zm1.71875 0q0 3.34375 0.78125 4.453125q0.796875 1.109375 1.9375 1.109375q1.15625 0 1.9375 -1.109375q0.78125 -1.125 0.78125 -4.453125q0 -3.359375 -0.78125 -4.46875q-0.78125 -1.109375 -1.953125 -1.109375q-1.15625 0 -1.828125 0.984375q-0.875 1.234375 -0.875 4.59375z" fill-rule="nonzero"></path><path fill="#eeeeee" d="m691.7414 312.19604l64.031494 0l0 69.13385l-64.031494 0z" fill-rule="evenodd"></path><path stroke="#595959" stroke-width="1.0" stroke-linejoin="round" stroke-linecap="butt" d="m691.7414 312.19604l64.031494 0l0 69.13385l-64.031494 0z" fill-rule="evenodd"></path><path fill="#000000" d="m728.0224 343.41736l-1.65625 0.125q-0.21875 -0.984375 -0.640625 -1.421875q-0.671875 -0.71875 -1.65625 -0.71875q-0.8125 0 -1.40625 0.4375q-0.796875 0.578125 -1.25 1.6875q-0.453125 1.09375 -0.46875 3.140625q0.609375 -0.921875 1.46875 -1.359375q0.875 -0.453125 1.828125 -0.453125q1.671875 0 2.84375 1.234375q1.171875 1.234375 1.171875 3.171875q0 1.28125 -0.546875 2.390625q-0.546875 1.09375 -1.515625 1.6875q-0.96875 0.578125 -2.1875 0.578125q-2.09375 0 -3.40625 -1.53125q-1.3125 -1.546875 -1.3125 -5.0625q0 -3.953125 1.453125 -5.734375q1.265625 -1.5625 3.421875 -1.5625q1.609375 0 2.625 0.90625q1.03125 0.890625 1.234375 2.484375zm-6.8125 5.859375q0 0.859375 0.359375 1.65625q0.375 0.78125 1.03125 1.203125q0.65625 0.40625 1.375 0.40625q1.0625 0 1.8125 -0.84375q0.765625 -0.859375 0.765625 -2.328125q0 -1.40625 -0.75 -2.21875q-0.75 -0.8125 -1.890625 -0.8125q-1.125 0 -1.921875 0.8125q-0.78125 0.8125 -0.78125 2.125z" fill-rule="nonzero"></path><path fill="#eeeeee" d="m490.93112 406.95193l64.031525 0l0 69.13388l-64.031525 0z" fill-rule="evenodd"></path><path stroke="#595959" stroke-width="1.0" stroke-linejoin="round" stroke-linecap="butt" d="m490.93112 406.95193l64.031525 0l0 69.13388l-64.031525 0z" fill-rule="evenodd"></path><path fill="#000000" d="m519.6493 448.43887l-1.671875 0l0 -10.640625q-0.59375 0.578125 -1.578125 1.15625q-0.984375 0.5625 -1.765625 0.859375l0 -1.625q1.40625 -0.65625 2.453125 -1.59375q1.046875 -0.9375 1.484375 -1.8125l1.078125 0l0 13.65625zm10.375732 0l-1.671875 0l0 -10.640625q-0.59375 0.578125 -1.578125 1.15625q-0.984375 0.5625 -1.765625 0.859375l0 -1.625q1.40625 -0.65625 2.453125 -1.59375q1.046875 -0.9375 1.484375 -1.8125l1.078125 0l0 13.65625z" fill-rule="nonzero"></path><path fill="#eeeeee" d="m567.5433 406.95193l64.031494 0l0 69.13388l-64.031494 0z" fill-rule="evenodd"></path><path stroke="#595959" stroke-width="1.0" stroke-linejoin="round" stroke-linecap="butt" d="m567.5433 406.95193l64.031494 0l0 69.13388l-64.031494 0z" fill-rule="evenodd"></path><path fill="#000000" d="m596.2615 448.43887l-1.671875 0l0 -10.640625q-0.59375 0.578125 -1.578125 1.15625q-0.984375 0.5625 -1.765625 0.859375l0 -1.625q1.40625 -0.65625 2.453125 -1.59375q1.046875 -0.9375 1.484375 -1.8125l1.078125 0l0 13.65625zm12.860046 -1.609375l0 1.609375l-8.984375 0q-0.015625 -0.609375 0.1875 -1.15625q0.34375 -0.921875 1.09375 -1.8125q0.765625 -0.890625 2.1875 -2.0625q2.21875 -1.8125 3.0 -2.875q0.78125 -1.0625 0.78125 -2.015625q0 -0.984375 -0.71875 -1.671875q-0.703125 -0.6875 -1.84375 -0.6875q-1.203125 0 -1.9375 0.734375q-0.71875 0.71875 -0.71875 2.0l-1.71875 -0.171875q0.171875 -1.921875 1.328125 -2.921875q1.15625 -1.015625 3.09375 -1.015625q1.953125 0 3.09375 1.09375q1.140625 1.078125 1.140625 2.6875q0 0.8125 -0.34375 1.609375q-0.328125 0.78125 -1.109375 1.65625q-0.765625 0.859375 -2.5625 2.390625q-1.5 1.265625 -1.9375 1.71875q-0.421875 0.4375 -0.703125 0.890625l6.671875 0z" fill-rule="nonzero"></path><path fill="#eeeeee" d="m691.7406 312.19604l64.031494 0l0 69.13385l-64.031494 0z" fill-rule="evenodd"></path><path stroke="#595959" stroke-width="1.0" stroke-linejoin="round" stroke-linecap="butt" d="m691.7406 312.19604l64.031494 0l0 69.13385l-64.031494 0z" fill-rule="evenodd"></path><path fill="#000000" d="m720.45874 353.68298l-1.671875 0l0 -10.640625q-0.59375 0.578125 -1.578125 1.15625q-0.984375 0.5625 -1.765625 0.859375l0 -1.625q1.40625 -0.65625 2.453125 -1.59375q1.046875 -0.9375 1.484375 -1.8125l1.078125 0l0 13.65625zm4.0944824 -3.59375l1.671875 -0.21875q0.28125 1.421875 0.96875 2.046875q0.703125 0.625 1.6875 0.625q1.1875 0 2.0 -0.8125q0.8125 -0.828125 0.8125 -2.03125q0 -1.140625 -0.765625 -1.890625q-0.75 -0.75 -1.90625 -0.75q-0.46875 0 -1.171875 0.1875l0.1875 -1.46875q0.15625 0.015625 0.265625 0.015625q1.0625 0 1.90625 -0.546875q0.859375 -0.5625 0.859375 -1.71875q0 -0.921875 -0.625 -1.515625q-0.609375 -0.609375 -1.59375 -0.609375q-0.96875 0 -1.625 0.609375q-0.640625 0.609375 -0.828125 1.84375l-1.671875 -0.296875q0.296875 -1.6875 1.375 -2.609375q1.09375 -0.921875 2.71875 -0.921875q1.109375 0 2.046875 0.484375q0.9375 0.46875 1.421875 1.296875q0.5 0.828125 0.5 1.75q0 0.890625 -0.46875 1.609375q-0.46875 0.71875 -1.40625 1.15625q1.21875 0.265625 1.875 1.15625q0.671875 0.875 0.671875 2.1875q0 1.78125 -1.296875 3.015625q-1.296875 1.234375 -3.28125 1.234375q-1.796875 0 -2.984375 -1.0625q-1.171875 -1.0625 -1.34375 -2.765625z" fill-rule="nonzero"></path><path fill="#eeeeee" d="m653.4345 406.95193l64.031494 0l0 69.13388l-64.031494 0z" fill-rule="evenodd"></path><path stroke="#595959" stroke-width="1.0" stroke-linejoin="round" stroke-linecap="butt" d="m653.4345 406.95193l64.031494 0l0 69.13388l-64.031494 0z" fill-rule="evenodd"></path><path fill="#000000" d="m682.15265 448.43887l-1.671875 0l0 -10.640625q-0.59375 0.578125 -1.578125 1.15625q-0.984375 0.5625 -1.765625 0.859375l0 -1.625q1.40625 -0.65625 2.453125 -1.59375q1.046875 -0.9375 1.484375 -1.8125l1.078125 0l0 13.65625zm9.438232 0l0 -3.25l-5.90625 0l0 -1.53125l6.21875 -8.8125l1.359375 0l0 8.8125l1.84375 0l0 1.53125l-1.84375 0l0 3.25l-1.671875 0zm0 -4.78125l0 -6.140625l-4.25 6.140625l4.25 0z" fill-rule="nonzero"></path><path fill="#eeeeee" d="m730.0467 406.95193l64.031494 0l0 69.13388l-64.031494 0z" fill-rule="evenodd"></path><path stroke="#595959" stroke-width="1.0" stroke-linejoin="round" stroke-linecap="butt" d="m730.0467 406.95193l64.031494 0l0 69.13388l-64.031494 0z" fill-rule="evenodd"></path><path fill="#000000" d="m758.76483 448.43887l-1.671875 0l0 -10.640625q-0.59375 0.578125 -1.578125 1.15625q-0.984375 0.5625 -1.765625 0.859375l0 -1.625q1.40625 -0.65625 2.453125 -1.59375q1.046875 -0.9375 1.484375 -1.8125l1.078125 0l0 13.65625zm4.0788574 -3.5625l1.765625 -0.15625q0.1875 1.28125 0.890625 1.9375q0.71875 0.640625 1.71875 0.640625q1.203125 0 2.03125 -0.90625q0.84375 -0.90625 0.84375 -2.421875q0 -1.421875 -0.8125 -2.25q-0.796875 -0.828125 -2.09375 -0.828125q-0.796875 0 -1.453125 0.375q-0.640625 0.359375 -1.015625 0.953125l-1.578125 -0.203125l1.328125 -7.0l6.765625 0l0 1.609375l-5.4375 0l-0.734375 3.640625q1.234375 -0.84375 2.578125 -0.84375q1.78125 0 3.0 1.234375q1.234375 1.234375 1.234375 3.171875q0 1.84375 -1.078125 3.1875q-1.3125 1.65625 -3.578125 1.65625q-1.859375 0 -3.03125 -1.03125q-1.171875 -1.046875 -1.34375 -2.765625z" fill-rule="nonzero"></path><path fill="#000000" fill-opacity="0.0" d="m480.0007 133.04855l-130.48819 73.38583" fill-rule="evenodd"></path><path stroke="#595959" stroke-width="1.0" stroke-linejoin="round" stroke-linecap="butt" d="m480.0007 133.04855l-125.258484 70.44469" fill-rule="evenodd"></path><path fill="#595959" stroke="#595959" stroke-width="1.0" stroke-linecap="butt" d="m353.93253 202.05356l-3.145813 3.664215l4.7651367 -0.78486633z" fill-rule="evenodd"></path><path fill="#000000" fill-opacity="0.0" d="m480.0007 133.04855l130.48819 73.38583" fill-rule="evenodd"></path><path stroke="#595959" stroke-width="1.0" stroke-linejoin="round" stroke-linecap="butt" d="m480.0007 133.04855l125.258514 70.44469" fill-rule="evenodd"></path><path fill="#595959" stroke="#595959" stroke-width="1.0" stroke-linecap="butt" d="m604.4495 204.9329l4.7651367 0.78486633l-3.145813 -3.664215z" fill-rule="evenodd"></path><path fill="#000000" fill-opacity="0.0" d="m317.49652 240.99696l-81.25984 71.2126" fill-rule="evenodd"></path><path stroke="#595959" stroke-width="1.0" stroke-linejoin="round" stroke-linecap="butt" d="m317.49652 240.99696l-76.747406 67.2581" fill-rule="evenodd"></path><path fill="#595959" stroke="#595959" stroke-width="1.0" stroke-linecap="butt" d="m239.66049 307.01285l-2.3243408 4.2332153l4.501587 -1.7487793z" fill-rule="evenodd"></path><path fill="#000000" fill-opacity="0.0" d="m317.49652 240.99696l81.25986 71.2126" fill-rule="evenodd"></path><path stroke="#595959" stroke-width="1.0" stroke-linejoin="round" stroke-linecap="butt" d="m317.49652 240.99696l76.747406 67.2581" fill-rule="evenodd"></path><path fill="#595959" stroke="#595959" stroke-width="1.0" stroke-linecap="butt" d="m393.1553 309.49728l4.501587 1.7487793l-2.3243408 -4.2332153z" fill-rule="evenodd"></path><path fill="#000000" fill-opacity="0.0" d="m642.5049 240.99696l-81.25989 71.2126" fill-rule="evenodd"></path><path stroke="#595959" stroke-width="1.0" stroke-linejoin="round" stroke-linecap="butt" d="m642.5049 240.99696l-76.74744 67.2581" fill-rule="evenodd"></path><path fill="#595959" stroke="#595959" stroke-width="1.0" stroke-linecap="butt" d="m564.6688 307.01285l-2.3243408 4.2332153l4.501587 -1.7487793z" fill-rule="evenodd"></path><path fill="#000000" fill-opacity="0.0" d="m642.5049 240.99696l81.25983 71.2126" fill-rule="evenodd"></path><path stroke="#595959" stroke-width="1.0" stroke-linejoin="round" stroke-linecap="butt" d="m642.5049 240.99696l76.74744 67.2581" fill-rule="evenodd"></path><path fill="#595959" stroke="#595959" stroke-width="1.0" stroke-linecap="butt" d="m718.16364 309.49728l4.501587 1.7487793l-2.3243408 -4.2332153z" fill-rule="evenodd"></path><path fill="#000000" fill-opacity="0.0" d="m236.24445 381.3299l-38.299225 25.606293" fill-rule="evenodd"></path><path stroke="#595959" stroke-width="1.0" stroke-linejoin="round" stroke-linecap="butt" d="m236.24445 381.3299l-33.31134 22.271484" fill-rule="evenodd"></path><path fill="#595959" stroke="#595959" stroke-width="1.0" stroke-linecap="butt" d="m202.01508 402.22827l-2.8545532 3.8953857l4.690628 -1.1492004z" fill-rule="evenodd"></path><path fill="#000000" fill-opacity="0.0" d="m236.24445 381.3299l38.299194 25.606293" fill-rule="evenodd"></path><path stroke="#595959" stroke-width="1.0" stroke-linejoin="round" stroke-linecap="butt" d="m236.24445 381.3299l33.31134 22.271484" fill-rule="evenodd"></path><path fill="#595959" stroke="#595959" stroke-width="1.0" stroke-linecap="butt" d="m268.63773 404.97446l4.6906433 1.1492004l-2.8545532 -3.8953857z" fill-rule="evenodd"></path><path fill="#000000" fill-opacity="0.0" d="m398.7478 381.3299l-38.299194 25.606293" fill-rule="evenodd"></path><path stroke="#595959" stroke-width="1.0" stroke-linejoin="round" stroke-linecap="butt" d="m398.74783 381.3299l-33.31137 22.271484" fill-rule="evenodd"></path><path fill="#595959" stroke="#595959" stroke-width="1.0" stroke-linecap="butt" d="m364.51846 402.22827l-2.8545532 3.8953857l4.690613 -1.1492004z" fill-rule="evenodd"></path><path fill="#000000" fill-opacity="0.0" d="m398.7478 381.3299l38.299225 25.606293" fill-rule="evenodd"></path><path stroke="#595959" stroke-width="1.0" stroke-linejoin="round" stroke-linecap="butt" d="m398.74783 381.3299l33.31134 22.271484" fill-rule="evenodd"></path><path fill="#595959" stroke="#595959" stroke-width="1.0" stroke-linecap="butt" d="m431.1411 404.97446l4.690613 1.1492004l-2.8545227 -3.8953857z" fill-rule="evenodd"></path><path fill="#000000" fill-opacity="0.0" d="m561.253 381.3299l-38.299255 25.606293" fill-rule="evenodd"></path><path stroke="#595959" stroke-width="1.0" stroke-linejoin="round" stroke-linecap="butt" d="m561.2529 381.3299l-33.31134 22.271484" fill-rule="evenodd"></path><path fill="#595959" stroke="#595959" stroke-width="1.0" stroke-linecap="butt" d="m527.02356 402.22827l-2.8544922 3.8953857l4.690613 -1.1492004z" fill-rule="evenodd"></path><path fill="#000000" fill-opacity="0.0" d="m561.253 381.3299l38.299194 25.606293" fill-rule="evenodd"></path><path stroke="#595959" stroke-width="1.0" stroke-linejoin="round" stroke-linecap="butt" d="m561.2529 381.3299l33.3114 22.271484" fill-rule="evenodd"></path><path fill="#595959" stroke="#595959" stroke-width="1.0" stroke-linecap="butt" d="m593.64624 404.97446l4.690613 1.1492004l-2.8545532 -3.8953857z" fill-rule="evenodd"></path><path fill="#000000" fill-opacity="0.0" d="m723.75635 381.3299l-38.299194 25.606293" fill-rule="evenodd"></path><path stroke="#595959" stroke-width="1.0" stroke-linejoin="round" stroke-linecap="butt" d="m723.7563 381.3299l-33.31122 22.271484" fill-rule="evenodd"></path><path fill="#595959" stroke="#595959" stroke-width="1.0" stroke-linecap="butt" d="m689.527 402.22824l-2.8545532 3.8954163l4.690613 -1.1492004z" fill-rule="evenodd"></path><path fill="#000000" fill-opacity="0.0" d="m723.75635 381.3299l38.299194 25.606293" fill-rule="evenodd"></path><path stroke="#595959" stroke-width="1.0" stroke-linejoin="round" stroke-linecap="butt" d="m723.7563 381.3299l33.3114 22.271484" fill-rule="evenodd"></path><path fill="#595959" stroke="#595959" stroke-width="1.0" stroke-linecap="butt" d="m756.1496 404.97446l4.690613 1.1492004l-2.8544922 -3.8953857z" fill-rule="evenodd"></path></g></svg>

