<svg version="1.1" viewBox="0.0 0.0 960.0 540.0" fill="none" stroke="none" stroke-linecap="square" stroke-miterlimit="10" xmlns:xlink="http://www.w3.org/1999/xlink" xmlns="http://www.w3.org/2000/svg"><clipPath id="g3cff2591bb_0_38.0"><path d="m0 0l960.0 0l0 540.0l-960.0 0l0 -540.0z" clip-rule="nonzero"/></clipPath><g clip-path="url(#g3cff2591bb_0_38.0)"><path fill="#ffffff" d="m0 0l960.0 0l0 540.0l-960.0 0z" fill-rule="evenodd"/><path fill="#000000" fill-opacity="0.0" d="m177.55484 63.19685c0 98.30708 1.5845947 196.62694 0 294.92126c-0.72766113 45.13867 0.4559784 90.32324 -1.5039368 135.4252c-0.7633667 17.566711 -7.2776947 35.607086 -3.0078735 52.664032" fill-rule="evenodd"/><path stroke="#595959" stroke-width="1.0" stroke-linejoin="round" stroke-linecap="butt" d="m177.55484 63.19685c0 98.30708 1.5845947 196.62694 0 294.92126c-0.72766113 45.13867 0.4559784 90.32324 -1.5039368 135.4252c-0.7633667 17.566711 -7.2776947 35.607086 -3.0078735 52.664032" fill-rule="evenodd"/><path fill="#000000" fill-opacity="0.0" d="m666.69556 418.71127c-111.2124 30.327545 -230.12878 22.816803 -345.32285 18.54071c-72.59691 -2.6948853 -145.20613 6.1810913 -217.85303 6.1810913" fill-rule="evenodd"/><path stroke="#595959" stroke-width="1.0" stroke-linejoin="round" stroke-linecap="butt" d="m666.69556 418.71127c-111.2124 30.327545 -230.12878 22.816803 -345.32285 18.54071c-72.59691 -2.6948853 -145.20613 6.1810913 -217.85303 6.1810913" fill-rule="evenodd"/><path fill="#000000" fill-opacity="0.0" d="m49.440945 223.26247c25.976978 -12.994003 55.222073 -24.275345 84.20735 -22.404205c25.372498 1.6379242 53.903732 18.881378 63.34645 42.48819c16.694885 41.737198 10.816269 89.47023 10.816269 134.42259c0 19.99936 -4.787674 48.418243 12.359589 58.711273c32.310516 19.395111 75.36278 -3.326477 112.79002 -7.7243958c15.011597 -1.763977 29.952332 4.167633 44.80841 6.9527283c33.25284 6.2340393 67.52249 10.933807 101.20209 7.7244263c22.507538 -2.144806 46.1369 -19.775116 54.07611 -40.944885c16.95813 -45.218536 12.550598 -95.76938 18.54071 -143.69028c3.420105 -27.361038 1.8468018 -57.585815 16.223083 -81.11549c40.931213 -66.9922 150.18463 -54.527138 228.66925 -56.393707" fill-rule="evenodd"/><path stroke="#00ff00" stroke-width="3.0" stroke-linejoin="round" stroke-linecap="butt" d="m49.440945 223.26247c25.976978 -12.994003 55.222073 -24.275345 84.20735 -22.404205c25.372498 1.6379242 53.903732 18.881378 63.34645 42.48819c16.694885 41.737198 10.816269 89.47023 10.816269 134.42259c0 19.99936 -4.787674 48.418243 12.359589 58.711273c32.310516 19.395111 75.36278 -3.326477 112.79002 -7.7243958c15.011597 -1.763977 29.952332 4.167633 44.80841 6.9527283c33.25284 6.2340393 67.52249 10.933807 101.20209 7.7244263c22.507538 -2.144806 46.1369 -19.775116 54.07611 -40.944885c16.95813 -45.218536 12.550598 -95.76938 18.54071 -143.69028c3.420105 -27.361038 1.8468018 -57.585815 16.223083 -81.11549c40.931213 -66.9922 150.18463 -54.527138 228.66925 -56.393707" fill-rule="evenodd"/><path fill="#000000" fill-opacity="0.0" d="m79.56956 269.6273l78.01574 0l0 51.905518l-78.01574 0z" fill-rule="evenodd"/><path fill="#000000" d="m90.03831 296.5473l0 -13.359375l9.65625 0l0 1.578125l-7.875 0l0 4.09375l7.375 0l0 1.5625l-7.375 0l0 4.546875l8.1875 0l0 1.578125l-9.96875 0zm12.193573 0l0 -9.671875l1.46875 0l0 1.46875q0.5625 -1.03125 1.03125 -1.359375q0.484375 -0.328125 1.0625 -0.328125q0.828125 0 1.6875 0.53125l-0.5625 1.515625q-0.609375 -0.359375 -1.203125 -0.359375q-0.546875 0 -0.96875 0.328125q-0.421875 0.328125 -0.609375 0.890625q-0.28125 0.875 -0.28125 1.921875l0 5.0625l-1.625 0zm6.212677 0l0 -9.671875l1.46875 0l0 1.46875q0.5625 -1.03125 1.03125 -1.359375q0.484375 -0.328125 1.0625 -0.328125q0.828125 0 1.6875 0.53125l-0.5625 1.515625q-0.609375 -0.359375 -1.203125 -0.359375q-0.546875 0 -0.96875 0.328125q-0.421875 0.328125 -0.609375 0.890625q-0.28125 0.875 -0.28125 1.921875l0 5.0625l-1.625 0zm5.618927 -4.84375q0 -2.6875 1.484375 -3.96875q1.25 -1.078125 3.046875 -1.078125q2.0 0 3.265625 1.3125q1.265625 1.296875 1.265625 3.609375q0 1.859375 -0.5625 2.9375q-0.5625 1.0625 -1.640625 1.65625q-1.0625 0.59375 -2.328125 0.59375q-2.03125 0 -3.28125 -1.296875q-1.25 -1.3125 -1.25 -3.765625zm1.6875 0q0 1.859375 0.796875 2.796875q0.8125 0.921875 2.046875 0.921875q1.21875 0 2.03125 -0.921875q0.8125 -0.9375 0.8125 -2.84375q0 -1.796875 -0.8125 -2.71875q-0.8125 -0.921875 -2.03125 -0.921875q-1.234375 0 -2.046875 0.921875q-0.796875 0.90625 -0.796875 2.765625zm9.281967 4.84375l0 -9.671875l1.46875 0l0 1.46875q0.5625 -1.03125 1.03125 -1.359375q0.48436737 -0.328125 1.0624924 -0.328125q0.828125 0 1.6875 0.53125l-0.5625 1.515625q-0.609375 -0.359375 -1.203125 -0.359375q-0.5468674 0 -0.9687424 0.328125q-0.421875 0.328125 -0.609375 0.890625q-0.28125 0.875 -0.28125 1.921875l0 5.0625l-1.625 0z" fill-rule="nonzero"/><path fill="#000000" fill-opacity="0.0" d="m402.4882 454.24933l64.12598 0l0 51.905518l-64.12598 0z" fill-rule="evenodd"/><path fill="#000000" d="m413.22256 481.16934l0 -13.359375l1.765625 0l0 13.359375l-1.765625 0zm4.6832886 0l0 -9.671875l1.46875 0l0 1.375q1.0625 -1.59375 3.078125 -1.59375q0.875 0 1.609375 0.3125q0.734375 0.3125 1.09375 0.828125q0.375 0.5 0.515625 1.203125q0.09375 0.453125 0.09375 1.59375l0 5.953125l-1.640625 0l0 -5.890625q0 -1.0 -0.203125 -1.484375q-0.1875 -0.5 -0.671875 -0.796875q-0.484375 -0.296875 -1.140625 -0.296875q-1.046875 0 -1.8125 0.671875q-0.75 0.65625 -0.75 2.515625l0 5.28125l-1.640625 0zm10.375732 3.703125l0 -13.375l1.484375 0l0 1.25q0.53125 -0.734375 1.1875 -1.09375q0.671875 -0.375 1.625 -0.375q1.234375 0 2.171875 0.640625q0.953125 0.625 1.4375 1.796875q0.484375 1.15625 0.484375 2.546875q0 1.484375 -0.53125 2.671875q-0.53125 1.1875 -1.546875 1.828125q-1.015625 0.625 -2.140625 0.625q-0.8125 0 -1.46875 -0.34375q-0.65625 -0.34375 -1.0625 -0.875l0 4.703125l-1.640625 0zm1.484375 -8.484375q0 1.859375 0.75 2.765625q0.765625 0.890625 1.828125 0.890625q1.09375 0 1.875 -0.921875q0.78125 -0.9375 0.78125 -2.875q0 -1.84375 -0.765625 -2.765625q-0.75 -0.921875 -1.8125 -0.921875q-1.046875 0 -1.859375 0.984375q-0.796875 0.96875 -0.796875 2.84375zm15.219452 4.78125l0 -1.421875q-1.125 1.640625 -3.0625 1.640625q-0.859375 0 -1.609375 -0.328125q-0.734375 -0.328125 -1.09375 -0.828125q-0.359375 -0.5 -0.5 -1.21875q-0.109375 -0.46875 -0.109375 -1.53125l0 -5.984375l1.640625 0l0 5.359375q0 1.28125 0.109375 1.734375q0.15625 0.640625 0.65625 1.015625q0.5 0.375 1.234375 0.375q0.734375 0 1.375 -0.375q0.65625 -0.390625 0.921875 -1.03125q0.265625 -0.65625 0.265625 -1.890625l0 -5.1875l1.640625 0l0 9.671875l-1.46875 0zm7.6257324 -1.46875l0.234375 1.453125q-0.6875 0.140625 -1.234375 0.140625q-0.890625 0 -1.390625 -0.28125q-0.484375 -0.28125 -0.6875 -0.734375q-0.203125 -0.46875 -0.203125 -1.9375l0 -5.578125l-1.203125 0l0 -1.265625l1.203125 0l0 -2.390625l1.625 -0.984375l0 3.375l1.65625 0l0 1.265625l-1.65625 0l0 5.671875q0 0.6875 0.078125 0.890625q0.09375 0.203125 0.28125 0.328125q0.203125 0.109375 0.578125 0.109375q0.265625 0 0.71875 -0.0625z" fill-rule="nonzero"/><path fill="#000000" fill-opacity="0.0" d="m26.26509 232.5328c5.571163 -33.35144 68.04519 -13.584137 101.2021 -6.952759c35.576447 7.1152954 89.10446 -13.573639 107.383194 17.766403c11.797836 20.228134 8.37561 46.172348 10.042007 69.5302c1.8050842 25.302032 6.573822 50.365784 7.7243958 75.706024c1.006424 22.165253 3.0626526 66.61902 24.721802 61.80316c18.6557 -4.1480713 15.496185 -36.577057 13.905487 -55.62204c-3.3222046 -39.77661 -0.77163696 -79.8277 -0.77163696 -119.7428c0 -14.430023 -8.661102 -33.062363 1.545929 -43.262466c14.576019 -14.566132 41.683533 -2.9194489 61.800537 1.545929c16.860626 3.742569 35.09857 2.2262878 51.76114 -2.3175812c41.888947 -11.42308 74.84915 -45.283447 115.87924 -59.485565c34.397766 -11.906387 72.719666 3.9816437 108.92651 7.7270355c35.330444 3.6547241 70.31836 -12.362213 105.83728 -12.362213" fill-rule="evenodd"/><path stroke="#ff0000" stroke-width="3.0" stroke-linejoin="round" stroke-linecap="butt" d="m26.26509 232.5328c5.571163 -33.35144 68.04519 -13.584137 101.2021 -6.952759c35.576447 7.1152954 89.10446 -13.573639 107.383194 17.766403c11.797836 20.228134 8.37561 46.172348 10.042007 69.5302c1.8050842 25.302032 6.573822 50.365784 7.7243958 75.706024c1.006424 22.165253 3.0626526 66.61902 24.721802 61.80316c18.6557 -4.1480713 15.496185 -36.577057 13.905487 -55.62204c-3.3222046 -39.77661 -0.77163696 -79.8277 -0.77163696 -119.7428c0 -14.430023 -8.661102 -33.062363 1.545929 -43.262466c14.576019 -14.566132 41.683533 -2.9194489 61.800537 1.545929c16.860626 3.742569 35.09857 2.2262878 51.76114 -2.3175812c41.888947 -11.42308 74.84915 -45.283447 115.87924 -59.485565c34.397766 -11.906387 72.719666 3.9816437 108.92651 7.7270355c35.330444 3.6547241 70.31836 -12.362213 105.83728 -12.362213" fill-rule="evenodd"/></g></svg>