<?xml version="1.0" standalone="yes"?>

<svg version="1.1" viewBox="0.0 0.0 960.0 540.0" fill="none" stroke="none" stroke-linecap="square" stroke-miterlimit="10" xmlns="http://www.w3.org/2000/svg" xmlns:xlink="http://www.w3.org/1999/xlink"><clipPath id="g30778d88a0_0_0.0"><path d="m0 0l960.0 0l0 540.0l-960.0 0l0 -540.0z" clip-rule="nonzero"></path></clipPath><g clip-path="url(#g30778d88a0_0_0.0)"><path fill="#ffffff" d="m0 0l960.0 0l0 540.0l-960.0 0z" fill-rule="evenodd"></path><path fill="#000000" fill-opacity="0.0" d="m152.0 314.07126l0 0c0 -11.008209 8.923935 -19.93216 19.93216 -19.93216l79.72624 0l0 0c5.286331 0 10.356155 2.100006 14.094162 5.8380127c3.7380066 3.7380066 5.837982 8.807831 5.837982 14.094147l0 104.230194c0 11.008209 -8.92392 19.932129 -19.932144 19.932129l-79.72624 0c-11.0082245 0 -19.93216 -8.92392 -19.93216 -19.932129z" fill-rule="evenodd"></path><path stroke="#6aa84f" stroke-width="3.0" stroke-linejoin="round" stroke-linecap="butt" d="m152.0 314.07126l0 0c0 -11.008209 8.923935 -19.93216 19.93216 -19.93216l79.72624 0l0 0c5.286331 0 10.356155 2.100006 14.094162 5.8380127c3.7380066 3.7380066 5.837982 8.807831 5.837982 14.094147l0 104.230194c0 11.008209 -8.92392 19.932129 -19.932144 19.932129l-79.72624 0c-11.0082245 0 -19.93216 -8.92392 -19.93216 -19.932129z" fill-rule="evenodd"></path><path fill="#000000" fill-opacity="0.0" d="m272.0 314.07126l0 0c0 -11.008209 8.92392 -19.93216 19.93216 -19.93216l79.72623 0l0 0c5.2863464 0 10.356171 2.100006 14.094177 5.8380127c3.7380066 3.7380066 5.837982 8.807831 5.837982 14.094147l0 104.230194c0 11.008209 -8.92392 19.932129 -19.93216 19.932129l-79.72623 0c-11.00824 0 -19.93216 -8.92392 -19.93216 -19.932129z" fill-rule="evenodd"></path><path stroke="#6aa84f" stroke-width="3.0" stroke-linejoin="round" stroke-linecap="butt" d="m272.0 314.07126l0 0c0 -11.008209 8.92392 -19.93216 19.93216 -19.93216l79.72623 0l0 0c5.2863464 0 10.356171 2.100006 14.094177 5.8380127c3.7380066 3.7380066 5.837982 8.807831 5.837982 14.094147l0 104.230194c0 11.008209 -8.92392 19.932129 -19.93216 19.932129l-79.72623 0c-11.00824 0 -19.93216 -8.92392 -19.93216 -19.932129z" fill-rule="evenodd"></path><path fill="#000000" fill-opacity="0.0" d="m392.0 314.07126l0 0c0 -11.008209 8.92392 -19.93216 19.93216 -19.93216l79.72623 0l0 0c5.2863464 0 10.356171 2.100006 14.094177 5.8380127c3.7380066 3.7380066 5.837982 8.807831 5.837982 14.094147l0 104.230194c0 11.008209 -8.92392 19.932129 -19.93216 19.932129l-79.72623 0c-11.00824 0 -19.93216 -8.92392 -19.93216 -19.932129z" fill-rule="evenodd"></path><path stroke="#6aa84f" stroke-width="3.0" stroke-linejoin="round" stroke-linecap="butt" d="m392.0 314.07126l0 0c0 -11.008209 8.92392 -19.93216 19.93216 -19.93216l79.72623 0l0 0c5.2863464 0 10.356171 2.100006 14.094177 5.8380127c3.7380066 3.7380066 5.837982 8.807831 5.837982 14.094147l0 104.230194c0 11.008209 -8.92392 19.932129 -19.93216 19.932129l-79.72623 0c-11.00824 0 -19.93216 -8.92392 -19.93216 -19.932129z" fill-rule="evenodd"></path><path fill="#000000" fill-opacity="0.0" d="m32.0 314.07126l0 0c0 -11.008209 8.923931 -19.93216 19.932156 -19.93216l79.72624 0l0 0c5.286331 0 10.356155 2.100006 14.094162 5.8380127c3.7379913 3.7380066 5.837982 8.807831 5.837982 14.094147l0 104.230194c0 11.008209 -8.92392 19.932129 -19.932144 19.932129l-79.72624 0c-11.0082245 0 -19.932156 -8.92392 -19.932156 -19.932129z" fill-rule="evenodd"></path><path stroke="#6aa84f" stroke-width="3.0" stroke-linejoin="round" stroke-linecap="butt" d="m32.0 314.07126l0 0c0 -11.008209 8.923931 -19.93216 19.932156 -19.93216l79.72624 0l0 0c5.286331 0 10.356155 2.100006 14.094162 5.8380127c3.7379913 3.7380066 5.837982 8.807831 5.837982 14.094147l0 104.230194c0 11.008209 -8.92392 19.932129 -19.932144 19.932129l-79.72624 0c-11.0082245 0 -19.932156 -8.92392 -19.932156 -19.932129z" fill-rule="evenodd"></path><path fill="#000000" fill-opacity="0.0" d="m103.37795 138.97949l0 0c0 -13.263794 10.752434 -24.016228 24.016228 -24.016228l283.1801 0c6.369507 0 12.478119 2.5302734 16.982056 7.034195c4.5039062 4.503914 7.0341797 10.612541 7.0341797 16.982033l0 96.06203c0 13.263809 -10.752441 24.01622 -24.016235 24.01622l-283.1801 0c-13.263794 0 -24.016228 -10.752411 -24.016228 -24.01622z" fill-rule="evenodd"></path><path stroke="#6aa84f" stroke-width="3.0" stroke-linejoin="round" stroke-linecap="butt" d="m103.37795 138.97949l0 0c0 -13.263794 10.752434 -24.016228 24.016228 -24.016228l283.1801 0c6.369507 0 12.478119 2.5302734 16.982056 7.034195c4.5039062 4.503914 7.0341797 10.612541 7.0341797 16.982033l0 96.06203c0 13.263809 -10.752441 24.01622 -24.016235 24.01622l-283.1801 0c-13.263794 0 -24.016228 -10.752411 -24.016228 -24.01622z" fill-rule="evenodd"></path><path fill="#000000" fill-opacity="0.0" d="m14.855643 169.15071l0 0c0 -30.627045 24.828129 -55.45517 55.455177 -55.45517l409.02664 0c14.707642 0 28.812866 5.8425827 39.21277 16.242447c10.399841 10.399857 16.242432 24.505096 16.242432 39.212723l0 221.81407c0 30.627045 -24.828156 55.45517 -55.4552 55.45517l-409.02664 0c-30.627048 0 -55.455177 -24.828125 -55.455177 -55.45517z" fill-rule="evenodd"></path><path stroke="#ff9900" stroke-width="3.0" stroke-linejoin="round" stroke-linecap="butt" d="m14.855643 169.15071l0 0c0 -30.627045 24.828129 -55.45517 55.455177 -55.45517l409.02664 0c14.707642 0 28.812866 5.8425827 39.21277 16.242447c10.399841 10.399857 16.242432 24.505096 16.242432 39.212723l0 221.81407c0 30.627045 -24.828156 55.45517 -55.4552 55.45517l-409.02664 0c-30.627048 0 -55.455177 -24.828125 -55.455177 -55.45517z" fill-rule="evenodd"></path><path fill="#eeeeee" d="m65.31224 301.53018l47.46457 0l0 51.24411l-47.46457 0z" fill-rule="evenodd"></path><path stroke="#595959" stroke-width="1.0" stroke-linejoin="round" stroke-linecap="butt" d="m65.31224 301.53018l47.46457 0l0 51.24411l-47.46457 0z" fill-rule="evenodd"></path><path fill="#000000" d="m89.99729 334.07224l0 -3.25l-5.90625 0l0 -1.53125l6.21875 -8.8125l1.359375 0l0 8.8125l1.84375 0l0 1.53125l-1.84375 0l0 3.25l-1.671875 0zm0 -4.78125l0 -6.140625l-4.25 6.140625l4.25 0z" fill-rule="nonzero"></path><path fill="#eeeeee" d="m125.527756 197.53018l47.46457 0l0 51.244095l-47.46457 0z" fill-rule="evenodd"></path><path stroke="#595959" stroke-width="1.0" stroke-linejoin="round" stroke-linecap="butt" d="m125.527756 197.53018l47.46457 0l0 51.244095l-47.46457 0z" fill-rule="evenodd"></path><path fill="#000000" d="m144.86906 226.47849l1.671875 -0.21875q0.28125 1.421875 0.96875 2.046875q0.703125 0.625 1.6875 0.625q1.1875 0 2.0 -0.8125q0.8125 -0.828125 0.8125 -2.03125q0 -1.140625 -0.765625 -1.890625q-0.75 -0.75 -1.90625 -0.75q-0.46875 0 -1.171875 0.1875l0.1875 -1.46875q0.15625 0.015625 0.265625 0.015625q1.0625 0 1.90625 -0.546875q0.859375 -0.5625 0.859375 -1.71875q0 -0.921875 -0.625 -1.515625q-0.609375 -0.609375 -1.59375 -0.609375q-0.96875 0 -1.625 0.609375q-0.640625 0.609375 -0.828125 1.84375l-1.671875 -0.296875q0.296875 -1.6875 1.375 -2.609375q1.09375 -0.921875 2.71875 -0.921875q1.109375 0 2.046875 0.484375q0.9375 0.46875 1.421875 1.296875q0.5 0.828125 0.5 1.75q0 0.890625 -0.46875 1.609375q-0.46875 0.71875 -1.40625 1.15625q1.21875 0.265625 1.875 1.15625q0.671875 0.875 0.671875 2.1875q0 1.78125 -1.296875 3.015625q-1.296875 1.234375 -3.28125 1.234375q-1.796875 0 -2.984375 -1.0625q-1.171875 -1.0625 -1.34375 -2.765625z" fill-rule="nonzero"></path><path fill="#eeeeee" d="m185.74327 301.53018l47.46457 0l0 51.24411l-47.46457 0z" fill-rule="evenodd"></path><path stroke="#595959" stroke-width="1.0" stroke-linejoin="round" stroke-linecap="butt" d="m185.74327 301.53018l47.46457 0l0 51.24411l-47.46457 0z" fill-rule="evenodd"></path><path fill="#000000" d="m213.74083 323.8066l-1.65625 0.125q-0.21875 -0.984375 -0.640625 -1.421875q-0.671875 -0.71875 -1.65625 -0.71875q-0.8125 0 -1.40625 0.4375q-0.796875 0.578125 -1.25 1.6875q-0.453125 1.09375 -0.46875 3.140625q0.609375 -0.921875 1.46875 -1.359375q0.875 -0.453125 1.828125 -0.453125q1.671875 0 2.84375 1.234375q1.171875 1.234375 1.171875 3.171875q0 1.28125 -0.546875 2.390625q-0.546875 1.09375 -1.515625 1.6875q-0.96875 0.578125 -2.1875 0.578125q-2.09375 0 -3.40625 -1.53125q-1.3125 -1.546875 -1.3125 -5.0625q0 -3.953125 1.453125 -5.734375q1.265625 -1.5625 3.421875 -1.5625q1.609375 0 2.625 0.90625q1.03125 0.890625 1.234375 2.484375zm-6.8125 5.859375q0 0.859375 0.359375 1.65625q0.375 0.78125 1.03125 1.203125q0.65625 0.40625 1.375 0.40625q1.0625 0 1.8125 -0.84375q0.765625 -0.859375 0.765625 -2.328125q0 -1.40625 -0.75 -2.21875q-0.75 -0.8125 -1.890625 -0.8125q-1.125 0 -1.921875 0.8125q-0.78125 0.8125 -0.78125 2.125z" fill-rule="nonzero"></path><path fill="#eeeeee" d="m245.95879 117.53018l47.464584 0l0 51.244095l-47.464584 0z" fill-rule="evenodd"></path><path stroke="#595959" stroke-width="1.0" stroke-linejoin="round" stroke-linecap="butt" d="m245.95879 117.53018l47.464584 0l0 51.244095l-47.464584 0z" fill-rule="evenodd"></path><path fill="#000000" d="m274.0657 148.46286l0 1.609375l-8.984375 0q-0.015625 -0.609375 0.1875 -1.15625q0.34375 -0.921875 1.09375 -1.8125q0.765625 -0.890625 2.1875 -2.0625q2.21875 -1.8125 3.0 -2.875q0.78125 -1.0625 0.78125 -2.015625q0 -0.984375 -0.71875 -1.671875q-0.703125 -0.6875 -1.84375 -0.6875q-1.203125 0 -1.9375 0.734375q-0.71875 0.71875 -0.71875 2.0l-1.71875 -0.171875q0.171875 -1.921875 1.328125 -2.921875q1.15625 -1.015625 3.09375 -1.015625q1.953125 0 3.09375 1.09375q1.140625 1.078125 1.140625 2.6875q0 0.8125 -0.34375 1.609375q-0.328125 0.78125 -1.109375 1.65625q-0.765625 0.859375 -2.5625 2.390625q-1.5 1.265625 -1.9375 1.71875q-0.421875 0.4375 -0.703125 0.890625l6.671875 0z" fill-rule="nonzero"></path><path fill="#eeeeee" d="m306.17432 301.53018l47.46457 0l0 51.24411l-47.46457 0z" fill-rule="evenodd"></path><path stroke="#595959" stroke-width="1.0" stroke-linejoin="round" stroke-linecap="butt" d="m306.17432 301.53018l47.46457 0l0 51.24411l-47.46457 0z" fill-rule="evenodd"></path><path fill="#000000" d="m328.07812 326.69724q-1.046875 -0.375 -1.546875 -1.078125q-0.5 -0.71875 -0.5 -1.703125q0 -1.484375 1.0625 -2.484375q1.078125 -1.015625 2.84375 -1.015625q1.78125 0 2.859375 1.03125q1.09375 1.03125 1.09375 2.515625q0 0.953125 -0.5 1.65625q-0.484375 0.703125 -1.5 1.078125q1.25 0.40625 1.90625 1.3125q0.65625 0.90625 0.65625 2.171875q0 1.75 -1.234375 2.9375q-1.234375 1.1875 -3.25 1.1875q-2.015625 0 -3.25 -1.1875q-1.234375 -1.203125 -1.234375 -2.984375q0 -1.328125 0.671875 -2.21875q0.671875 -0.890625 1.921875 -1.21875zm-0.328125 -2.828125q0 0.96875 0.609375 1.578125q0.625 0.609375 1.625 0.609375q0.953125 0 1.5625 -0.609375q0.625 -0.609375 0.625 -1.484375q0 -0.921875 -0.640625 -1.546875q-0.625 -0.625 -1.578125 -0.625q-0.953125 0 -1.578125 0.609375q-0.625 0.609375 -0.625 1.46875zm-0.546875 6.28125q0 0.71875 0.328125 1.390625q0.34375 0.65625 1.015625 1.03125q0.671875 0.359375 1.4375 0.359375q1.203125 0 1.984375 -0.765625q0.78125 -0.78125 0.78125 -1.96875q0 -1.203125 -0.8125 -1.984375q-0.796875 -0.796875 -2.0 -0.796875q-1.1875 0 -1.96875 0.78125q-0.765625 0.78125 -0.765625 1.953125z" fill-rule="nonzero"></path><path fill="#eeeeee" d="m366.38983 197.53018l47.46457 0l0 51.244095l-47.46457 0z" fill-rule="evenodd"></path><path stroke="#595959" stroke-width="1.0" stroke-linejoin="round" stroke-linecap="butt" d="m366.38983 197.53018l47.46457 0l0 51.244095l-47.46457 0z" fill-rule="evenodd"></path><path fill="#000000" d="m391.0749 230.07224l0 -3.25l-5.90625 0l0 -1.53125l6.21875 -8.8125l1.359375 0l0 8.8125l1.84375 0l0 1.53125l-1.84375 0l0 3.25l-1.671875 0zm0 -4.78125l0 -6.140625l-4.25 6.140625l4.25 0z" fill-rule="nonzero"></path><path fill="#eeeeee" d="m426.60535 301.53018l47.46457 0l0 51.24411l-47.46457 0z" fill-rule="evenodd"></path><path stroke="#595959" stroke-width="1.0" stroke-linejoin="round" stroke-linecap="butt" d="m426.60535 301.53018l47.46457 0l0 51.24411l-47.46457 0z" fill-rule="evenodd"></path><path fill="#000000" d="m446.19666 330.9316l1.59375 -0.15625q0.203125 1.140625 0.78125 1.65625q0.578125 0.5 1.484375 0.5q0.765625 0 1.34375 -0.34375q0.578125 -0.359375 0.953125 -0.953125q0.375 -0.59375 0.625 -1.59375q0.25 -1.0 0.25 -2.03125q0 -0.109375 -0.015625 -0.34375q-0.5 0.796875 -1.375 1.296875q-0.859375 0.5 -1.875 0.5q-1.6875 0 -2.859375 -1.21875q-1.171875 -1.234375 -1.171875 -3.234375q0 -2.078125 1.21875 -3.328125q1.234375 -1.265625 3.0625 -1.265625q1.328125 0 2.421875 0.71875q1.109375 0.703125 1.671875 2.03125q0.578125 1.328125 0.578125 3.828125q0 2.609375 -0.578125 4.15625q-0.5625 1.546875 -1.6875 2.359375q-1.109375 0.796875 -2.609375 0.796875q-1.59375 0 -2.609375 -0.890625q-1.0 -0.890625 -1.203125 -2.484375zm6.828125 -6.0q0 -1.4375 -0.765625 -2.28125q-0.765625 -0.859375 -1.84375 -0.859375q-1.109375 0 -1.9375 0.921875q-0.828125 0.90625 -0.828125 2.34375q0 1.3125 0.78125 2.125q0.796875 0.796875 1.9375 0.796875q1.171875 0 1.90625 -0.796875q0.75 -0.8125 0.75 -2.25z" fill-rule="nonzero"></path><path fill="#eeeeee" d="m454.82086 45.53018l47.46457 0l0 51.244095l-47.46457 0z" fill-rule="evenodd"></path><path stroke="#595959" stroke-width="1.0" stroke-linejoin="round" stroke-linecap="butt" d="m454.82086 45.53018l47.46457 0l0 51.244095l-47.46457 0z" fill-rule="evenodd"></path><path fill="#000000" d="m480.44342 78.07223l-1.671875 0l0 -10.640625q-0.59375 0.578125 -1.578125 1.15625q-0.984375 0.5625 -1.765625 0.859375l0 -1.625q1.40625 -0.65625 2.453125 -1.59375q1.046875 -0.9375 1.484375 -1.8125l1.078125 0l0 13.65625z" fill-rule="nonzero"></path><path fill="#eeeeee" d="m695.6829 117.53018l47.4646 0l0 51.244095l-47.4646 0z" fill-rule="evenodd"></path><path stroke="#595959" stroke-width="1.0" stroke-linejoin="round" stroke-linecap="butt" d="m695.6829 117.53018l47.4646 0l0 51.244095l-47.4646 0z" fill-rule="evenodd"></path><path fill="#000000" d="m716.1176 150.07224l-1.671875 0l0 -10.640625q-0.59375 0.578125 -1.578125 1.15625q-0.984375 0.5625 -1.765625 0.859375l0 -1.625q1.40625 -0.65625 2.453125 -1.59375q1.046875 -0.9375 1.484375 -1.8125l1.078125 0l0 13.65625zm4.2038574 -11.8125l0 -1.609375l8.796875 0l0 1.296875q-1.296875 1.375 -2.578125 3.671875q-1.265625 2.296875 -1.96875 4.71875q-0.5 1.703125 -0.640625 3.734375l-1.71875 0q0.03125 -1.609375 0.625 -3.875q0.609375 -2.28125 1.734375 -4.390625q1.140625 -2.109375 2.40625 -3.546875l-6.65625 0z" fill-rule="nonzero"></path><path fill="#000000" fill-opacity="0.0" d="m152.11023 109.238846l652.1575 0" fill-rule="evenodd"></path><path stroke="#ff0000" stroke-width="4.0" stroke-linejoin="round" stroke-linecap="butt" stroke-dasharray="16.0,12.0" d="m152.11023 109.238846l652.1575 0" fill-rule="evenodd"></path><path fill="#000000" fill-opacity="0.0" d="m478.55313 96.77428l-185.13385 46.393707" fill-rule="evenodd"></path><path stroke="#595959" stroke-width="1.0" stroke-linejoin="round" stroke-linecap="butt" d="m478.55316 96.77428l-179.31381 44.935226" fill-rule="evenodd"></path><path fill="#595959" stroke="#595959" stroke-width="1.0" stroke-linecap="butt" d="m298.83783 140.10732l-4.0004883 2.705307l4.8034973 0.4990692z" fill-rule="evenodd"></path><path fill="#000000" fill-opacity="0.0" d="m478.55313 96.77428l217.13388 46.393707" fill-rule="evenodd"></path><path stroke="#595959" stroke-width="1.0" stroke-linejoin="round" stroke-linecap="butt" d="m478.55316 96.77428l211.2663 45.140015" fill-rule="evenodd"></path><path fill="#595959" stroke="#595959" stroke-width="1.0" stroke-linecap="butt" d="m689.4743 143.52957l4.783081 -0.6670532l-4.0928345 -2.563507z" fill-rule="evenodd"></path><path fill="#eeeeee" d="m36.92379 371.7533l47.46457 0l0 51.24408l-47.46457 0z" fill-rule="evenodd"></path><path stroke="#595959" stroke-width="1.0" stroke-linejoin="round" stroke-linecap="butt" d="m36.92379 371.7533l47.46457 0l0 51.24408l-47.46457 0z" fill-rule="evenodd"></path><path fill="#000000" d="m56.249466 400.73282l1.765625 -0.15625q0.1875 1.28125 0.890625 1.9375q0.71875 0.640625 1.71875 0.640625q1.203125 0 2.03125 -0.90625q0.84375 -0.90625 0.84375 -2.421875q0 -1.421875 -0.8125 -2.25q-0.796875 -0.828125 -2.09375 -0.828125q-0.796875 0 -1.453125 0.375q-0.640625 0.359375 -1.015625 0.953125l-1.578125 -0.203125l1.328125 -7.0l6.765625 0l0 1.609375l-5.4375 0l-0.734375 3.640625q1.234375 -0.84375 2.578125 -0.84375q1.78125 0 3.0 1.234375q1.234375 1.234375 1.234375 3.171875q0 1.84375 -1.078125 3.1875q-1.3125 1.65625 -3.578125 1.65625q-1.859375 0 -3.03125 -1.03125q-1.171875 -1.046875 -1.34375 -2.765625z" fill-rule="nonzero"></path><path fill="#eeeeee" d="m93.70069 371.7533l47.46456 0l0 51.24408l-47.46456 0z" fill-rule="evenodd"></path><path stroke="#595959" stroke-width="1.0" stroke-linejoin="round" stroke-linecap="butt" d="m93.70069 371.7533l47.46456 0l0 51.24408l-47.46456 0z" fill-rule="evenodd"></path><path fill="#000000" d="m121.69824 394.0297l-1.65625 0.125q-0.21875 -0.984375 -0.640625 -1.421875q-0.671875 -0.71875 -1.65625 -0.71875q-0.8125 0 -1.40625 0.4375q-0.796875 0.578125 -1.25 1.6875q-0.453125 1.09375 -0.46875 3.140625q0.609375 -0.921875 1.46875 -1.359375q0.875 -0.453125 1.828125 -0.453125q1.671875 0 2.84375 1.234375q1.171875 1.234375 1.171875 3.171875q0 1.28125 -0.546875 2.390625q-0.546875 1.09375 -1.515625 1.6875q-0.96875 0.578125 -2.1875 0.578125q-2.09375 0 -3.40625 -1.53125q-1.3125 -1.546875 -1.3125 -5.0625q0 -3.953125 1.453125 -5.734375q1.265625 -1.5625 3.421875 -1.5625q1.609375 0 2.625 0.90625q1.03125 0.890625 1.234375 2.484375zm-6.8125 5.859375q0 0.859375 0.359375 1.65625q0.375 0.78125 1.03125 1.203125q0.65625 0.40625 1.375 0.40625q1.0625 0 1.8125 -0.84375q0.765625 -0.859375 0.765625 -2.328125q0 -1.40625 -0.75 -2.21875q-0.75 -0.8125 -1.890625 -0.8125q-1.125 0 -1.921875 0.8125q-0.78125 0.8125 -0.78125 2.125z" fill-rule="nonzero"></path><path fill="#eeeeee" d="m185.74269 301.53018l47.46457 0l0 51.24411l-47.46457 0z" fill-rule="evenodd"></path><path stroke="#595959" stroke-width="1.0" stroke-linejoin="round" stroke-linecap="butt" d="m185.74269 301.53018l47.46457 0l0 51.24411l-47.46457 0z" fill-rule="evenodd"></path><path fill="#000000" d="m205.19336 322.25974l0 -1.609375l8.796875 0l0 1.296875q-1.296875 1.375 -2.578125 3.671875q-1.265625 2.296875 -1.96875 4.71875q-0.5 1.703125 -0.640625 3.734375l-1.71875 0q0.03125 -1.609375 0.625 -3.875q0.609375 -2.28125 1.734375 -4.390625q1.140625 -2.109375 2.40625 -3.546875l-6.65625 0z" fill-rule="nonzero"></path><path fill="#eeeeee" d="m157.35423 371.7533l47.46457 0l0 51.24408l-47.46457 0z" fill-rule="evenodd"></path><path stroke="#595959" stroke-width="1.0" stroke-linejoin="round" stroke-linecap="butt" d="m157.35423 371.7533l47.46457 0l0 51.24408l-47.46457 0z" fill-rule="evenodd"></path><path fill="#000000" d="m179.25804 396.92032q-1.046875 -0.375 -1.546875 -1.078125q-0.5 -0.71875 -0.5 -1.703125q0 -1.484375 1.0625 -2.484375q1.078125 -1.015625 2.84375 -1.015625q1.78125 0 2.859375 1.03125q1.09375 1.03125 1.09375 2.515625q0 0.953125 -0.5 1.65625q-0.484375 0.703125 -1.5 1.078125q1.25 0.40625 1.90625 1.3125q0.65625 0.90625 0.65625 2.171875q0 1.75 -1.234375 2.9375q-1.234375 1.1875 -3.25 1.1875q-2.015625 0 -3.25 -1.1875q-1.234375 -1.203125 -1.234375 -2.984375q0 -1.328125 0.671875 -2.21875q0.671875 -0.890625 1.921875 -1.21875zm-0.328125 -2.828125q0 0.96875 0.609375 1.578125q0.625 0.609375 1.625 0.609375q0.953125 0 1.5625 -0.609375q0.625 -0.609375 0.625 -1.484375q0 -0.921875 -0.640625 -1.546875q-0.625 -0.625 -1.578125 -0.625q-0.953125 0 -1.578125 0.609375q-0.625 0.609375 -0.625 1.46875zm-0.546875 6.28125q0 0.71875 0.328125 1.390625q0.34375 0.65625 1.015625 1.03125q0.671875 0.359375 1.4375 0.359375q1.203125 0 1.984375 -0.765625q0.78125 -0.78125 0.78125 -1.96875q0 -1.203125 -0.8125 -1.984375q-0.796875 -0.796875 -2.0 -0.796875q-1.1875 0 -1.96875 0.78125q-0.765625 0.78125 -0.765625 1.953125z" fill-rule="nonzero"></path><path fill="#eeeeee" d="m214.13113 371.7533l47.46457 0l0 51.24408l-47.46457 0z" fill-rule="evenodd"></path><path stroke="#595959" stroke-width="1.0" stroke-linejoin="round" stroke-linecap="butt" d="m214.13113 371.7533l47.46457 0l0 51.24408l-47.46457 0z" fill-rule="evenodd"></path><path fill="#000000" d="m233.72244 401.1547l1.59375 -0.15625q0.203125 1.140625 0.78125 1.65625q0.578125 0.5 1.484375 0.5q0.765625 0 1.34375 -0.34375q0.578125 -0.359375 0.953125 -0.953125q0.375 -0.59375 0.625 -1.59375q0.25 -1.0 0.25 -2.03125q0 -0.109375 -0.015625 -0.34375q-0.5 0.796875 -1.375 1.296875q-0.859375 0.5 -1.875 0.5q-1.6875 0 -2.859375 -1.21875q-1.171875 -1.234375 -1.171875 -3.234375q0 -2.078125 1.21875 -3.328125q1.234375 -1.265625 3.0625 -1.265625q1.328125 0 2.421875 0.71875q1.109375 0.703125 1.671875 2.03125q0.578125 1.328125 0.578125 3.828125q0 2.609375 -0.578125 4.15625q-0.5625 1.546875 -1.6875 2.359375q-1.109375 0.796875 -2.609375 0.796875q-1.59375 0 -2.609375 -0.890625q-1.0 -0.890625 -1.203125 -2.484375zm6.828125 -6.0q0 -1.4375 -0.765625 -2.28125q-0.765625 -0.859375 -1.84375 -0.859375q-1.109375 0 -1.9375 0.921875q-0.828125 0.90625 -0.828125 2.34375q0 1.3125 0.78125 2.125q0.796875 0.796875 1.9375 0.796875q1.171875 0 1.90625 -0.796875q0.75 -0.8125 0.75 -2.25z" fill-rule="nonzero"></path><path fill="#eeeeee" d="m306.17444 301.53018l47.46457 0l0 51.24411l-47.46457 0z" fill-rule="evenodd"></path><path stroke="#595959" stroke-width="1.0" stroke-linejoin="round" stroke-linecap="butt" d="m306.17444 301.53018l47.46457 0l0 51.24411l-47.46457 0z" fill-rule="evenodd"></path><path fill="#000000" d="m326.60913 334.07224l-1.671875 0l0 -10.640625q-0.59375 0.578125 -1.578125 1.15625q-0.984375 0.5625 -1.765625 0.859375l0 -1.625q1.40625 -0.65625 2.453125 -1.59375q1.046875 -0.9375 1.484375 -1.8125l1.078125 0l0 13.65625zm4.0788574 -6.703125q0 -2.421875 0.5 -3.890625q0.5 -1.46875 1.46875 -2.265625q0.984375 -0.796875 2.46875 -0.796875q1.09375 0 1.921875 0.4375q0.828125 0.4375 1.359375 1.28125q0.546875 0.828125 0.84375 2.015625q0.3125 1.1875 0.3125 3.21875q0 2.390625 -0.5 3.859375q-0.484375 1.46875 -1.46875 2.28125q-0.96875 0.796875 -2.46875 0.796875q-1.96875 0 -3.078125 -1.40625q-1.359375 -1.703125 -1.359375 -5.53125zm1.71875 0q0 3.34375 0.78125 4.453125q0.796875 1.109375 1.9375 1.109375q1.15625 0 1.9375 -1.109375q0.78125 -1.125 0.78125 -4.453125q0 -3.359375 -0.78125 -4.46875q-0.78125 -1.109375 -1.953125 -1.109375q-1.15625 0 -1.828125 0.984375q-0.875 1.234375 -0.875 4.59375z" fill-rule="nonzero"></path><path fill="#eeeeee" d="m426.60547 301.53018l47.46457 0l0 51.24411l-47.46457 0z" fill-rule="evenodd"></path><path stroke="#595959" stroke-width="1.0" stroke-linejoin="round" stroke-linecap="butt" d="m426.60547 301.53018l47.46457 0l0 51.24411l-47.46457 0z" fill-rule="evenodd"></path><path fill="#000000" d="m454.60303 323.8066l-1.65625 0.125q-0.21875 -0.984375 -0.640625 -1.421875q-0.671875 -0.71875 -1.65625 -0.71875q-0.8125 0 -1.40625 0.4375q-0.796875 0.578125 -1.25 1.6875q-0.453125 1.09375 -0.46875 3.140625q0.609375 -0.921875 1.46875 -1.359375q0.875 -0.453125 1.828125 -0.453125q1.671875 0 2.84375 1.234375q1.171875 1.234375 1.171875 3.171875q0 1.28125 -0.546875 2.390625q-0.546875 1.09375 -1.515625 1.6875q-0.96875 0.578125 -2.1875 0.578125q-2.09375 0 -3.40625 -1.53125q-1.3125 -1.546875 -1.3125 -5.0625q0 -3.953125 1.453125 -5.734375q1.265625 -1.5625 3.421875 -1.5625q1.609375 0 2.625 0.90625q1.03125 0.890625 1.234375 2.484375zm-6.8125 5.859375q0 0.859375 0.359375 1.65625q0.375 0.78125 1.03125 1.203125q0.65625 0.40625 1.375 0.40625q1.0625 0 1.8125 -0.84375q0.765625 -0.859375 0.765625 -2.328125q0 -1.40625 -0.75 -2.21875q-0.75 -0.8125 -1.890625 -0.8125q-1.125 0 -1.921875 0.8125q-0.78125 0.8125 -0.78125 2.125z" fill-rule="nonzero"></path><path fill="#eeeeee" d="m277.78598 371.7533l47.46457 0l0 51.24408l-47.46457 0z" fill-rule="evenodd"></path><path stroke="#595959" stroke-width="1.0" stroke-linejoin="round" stroke-linecap="butt" d="m277.78598 371.7533l47.46457 0l0 51.24408l-47.46457 0z" fill-rule="evenodd"></path><path fill="#000000" d="m298.22067 404.29532l-1.671875 0l0 -10.640625q-0.59375 0.578125 -1.578125 1.15625q-0.984375 0.5625 -1.765625 0.859375l0 -1.625q1.40625 -0.65625 2.453125 -1.59375q1.046875 -0.9375 1.484375 -1.8125l1.078125 0l0 13.65625zm10.375732 0l-1.671875 0l0 -10.640625q-0.59375 0.578125 -1.578125 1.15625q-0.984375 0.5625 -1.765625 0.859375l0 -1.625q1.40625 -0.65625 2.453125 -1.59375q1.046875 -0.9375 1.484375 -1.8125l1.078125 0l0 13.65625z" fill-rule="nonzero"></path><path fill="#eeeeee" d="m334.5629 371.7533l47.46457 0l0 51.24408l-47.46457 0z" fill-rule="evenodd"></path><path stroke="#595959" stroke-width="1.0" stroke-linejoin="round" stroke-linecap="butt" d="m334.5629 371.7533l47.46457 0l0 51.24408l-47.46457 0z" fill-rule="evenodd"></path><path fill="#000000" d="m354.9976 404.29532l-1.671875 0l0 -10.640625q-0.59375 0.578125 -1.578125 1.15625q-0.984375 0.5625 -1.765625 0.859375l0 -1.625q1.40625 -0.65625 2.453125 -1.59375q1.046875 -0.9375 1.484375 -1.8125l1.078125 0l0 13.65625zm12.860077 -1.609375l0 1.609375l-8.984375 0q-0.015625 -0.609375 0.1875 -1.15625q0.34375 -0.921875 1.09375 -1.8125q0.765625 -0.890625 2.1875 -2.0625q2.21875 -1.8125 3.0 -2.875q0.78125 -1.0625 0.78125 -2.015625q0 -0.984375 -0.71875 -1.671875q-0.703125 -0.6875 -1.84375 -0.6875q-1.203125 0 -1.9375 0.734375q-0.71875 0.71875 -0.71875 2.0l-1.71875 -0.171875q0.171875 -1.921875 1.328125 -2.921875q1.15625 -1.015625 3.09375 -1.015625q1.953125 0 3.09375 1.09375q1.140625 1.078125 1.140625 2.6875q0 0.8125 -0.34375 1.609375q-0.328125 0.78125 -1.109375 1.65625q-0.765625 0.859375 -2.5625 2.390625q-1.5 1.265625 -1.9375 1.71875q-0.421875 0.4375 -0.703125 0.890625l6.671875 0z" fill-rule="nonzero"></path><path fill="#eeeeee" d="m426.6049 301.53018l47.46457 0l0 51.24411l-47.46457 0z" fill-rule="evenodd"></path><path stroke="#595959" stroke-width="1.0" stroke-linejoin="round" stroke-linecap="butt" d="m426.6049 301.53018l47.46457 0l0 51.24411l-47.46457 0z" fill-rule="evenodd"></path><path fill="#000000" d="m447.03958 334.07224l-1.671875 0l0 -10.640625q-0.59375 0.578125 -1.578125 1.15625q-0.984375 0.5625 -1.765625 0.859375l0 -1.625q1.40625 -0.65625 2.453125 -1.59375q1.046875 -0.9375 1.484375 -1.8125l1.078125 0l0 13.65625zm4.0944824 -3.59375l1.671875 -0.21875q0.28125 1.421875 0.96875 2.046875q0.703125 0.625 1.6875 0.625q1.1875 0 2.0 -0.8125q0.8125 -0.828125 0.8125 -2.03125q0 -1.140625 -0.765625 -1.890625q-0.75 -0.75 -1.90625 -0.75q-0.46875 0 -1.171875 0.1875l0.1875 -1.46875q0.15625 0.015625 0.265625 0.015625q1.0625 0 1.90625 -0.546875q0.859375 -0.5625 0.859375 -1.71875q0 -0.921875 -0.625 -1.515625q-0.609375 -0.609375 -1.59375 -0.609375q-0.96875 0 -1.625 0.609375q-0.640625 0.609375 -0.828125 1.84375l-1.671875 -0.296875q0.296875 -1.6875 1.375 -2.609375q1.09375 -0.921875 2.71875 -0.921875q1.109375 0 2.046875 0.484375q0.9375 0.46875 1.421875 1.296875q0.5 0.828125 0.5 1.75q0 0.890625 -0.46875 1.609375q-0.46875 0.71875 -1.40625 1.15625q1.21875 0.265625 1.875 1.15625q0.671875 0.875 0.671875 2.1875q0 1.78125 -1.296875 3.015625q-1.296875 1.234375 -3.28125 1.234375q-1.796875 0 -2.984375 -1.0625q-1.171875 -1.0625 -1.34375 -2.765625z" fill-rule="nonzero"></path><path fill="#eeeeee" d="m398.21643 371.7533l47.46457 0l0 51.24408l-47.46457 0z" fill-rule="evenodd"></path><path stroke="#595959" stroke-width="1.0" stroke-linejoin="round" stroke-linecap="butt" d="m398.21643 371.7533l47.46457 0l0 51.24408l-47.46457 0z" fill-rule="evenodd"></path><path fill="#000000" d="m418.65112 404.29532l-1.671875 0l0 -10.640625q-0.59375 0.578125 -1.578125 1.15625q-0.984375 0.5625 -1.765625 0.859375l0 -1.625q1.40625 -0.65625 2.453125 -1.59375q1.046875 -0.9375 1.484375 -1.8125l1.078125 0l0 13.65625zm9.438232 0l0 -3.25l-5.90625 0l0 -1.53125l6.21875 -8.8125l1.359375 0l0 8.8125l1.84375 0l0 1.53125l-1.84375 0l0 3.25l-1.671875 0zm0 -4.78125l0 -6.140625l-4.25 6.140625l4.25 0z" fill-rule="nonzero"></path><path fill="#eeeeee" d="m454.99335 371.7533l47.46457 0l0 51.24408l-47.46457 0z" fill-rule="evenodd"></path><path stroke="#595959" stroke-width="1.0" stroke-linejoin="round" stroke-linecap="butt" d="m454.99335 371.7533l47.46457 0l0 51.24408l-47.46457 0z" fill-rule="evenodd"></path><path fill="#000000" d="m475.42804 404.29532l-1.671875 0l0 -10.640625q-0.59375 0.578125 -1.578125 1.15625q-0.984375 0.5625 -1.765625 0.859375l0 -1.625q1.40625 -0.65625 2.453125 -1.59375q1.046875 -0.9375 1.484375 -1.8125l1.078125 0l0 13.65625zm4.078827 -3.5625l1.765625 -0.15625q0.1875 1.28125 0.890625 1.9375q0.71875 0.640625 1.71875 0.640625q1.203125 0 2.03125 -0.90625q0.84375 -0.90625 0.84375 -2.421875q0 -1.421875 -0.8125 -2.25q-0.796875 -0.828125 -2.09375 -0.828125q-0.796875 0 -1.453125 0.375q-0.640625 0.359375 -1.015625 0.953125l-1.578125 -0.203125l1.328125 -7.0l6.765625 0l0 1.609375l-5.4375 0l-0.734375 3.640625q1.234375 -0.84375 2.578125 -0.84375q1.78125 0 3.0 1.234375q1.234375 1.234375 1.234375 3.171875q0 1.84375 -1.078125 3.1875q-1.3125 1.65625 -3.578125 1.65625q-1.859375 0 -3.03125 -1.03125q-1.171875 -1.046875 -1.34375 -2.765625z" fill-rule="nonzero"></path><path fill="#000000" fill-opacity="0.0" d="m56.110237 269.23883l420.8189 1.1338806" fill-rule="evenodd"></path><path stroke="#ff0000" stroke-width="4.0" stroke-linejoin="round" stroke-linecap="butt" stroke-dasharray="16.0,12.0" d="m56.110237 269.23883l420.8189 1.1338806" fill-rule="evenodd"></path><path fill="#000000" fill-opacity="0.0" d="m701.1837 186.46982l98.04724 0l0 135.18109l-98.04724 0z" fill-rule="evenodd"></path><path fill="#000000" d="m715.9962 256.90982l0 -6.40625l6.40625 0l0 6.40625l-6.40625 0zm17.78125 0l0 -6.40625l6.40625 0l0 6.40625l-6.40625 0zm17.78125 0l0 -6.40625l6.40625 0l0 6.40625l-6.40625 0z" fill-rule="nonzero"></path><path fill="#000000" fill-opacity="0.0" d="m269.69107 168.77428l-96.6929 54.393707" fill-rule="evenodd"></path><path stroke="#595959" stroke-width="1.0" stroke-linejoin="round" stroke-linecap="butt" d="m269.69107 168.77428l-91.46355 51.45198" fill-rule="evenodd"></path><path fill="#595959" stroke="#595959" stroke-width="1.0" stroke-linecap="butt" d="m177.4177 218.78667l-3.145401 3.664566l4.765045 -0.7854004z" fill-rule="evenodd"></path><path fill="#000000" fill-opacity="0.0" d="m269.69107 168.77428l96.69293 54.393707" fill-rule="evenodd"></path><path stroke="#595959" stroke-width="1.0" stroke-linejoin="round" stroke-linecap="butt" d="m269.69107 168.77428l91.46353 51.45198" fill-rule="evenodd"></path><path fill="#595959" stroke="#595959" stroke-width="1.0" stroke-linecap="butt" d="m360.3448 221.66583l4.765045 0.7854004l-3.1453857 -3.664566z" fill-rule="evenodd"></path><path fill="#000000" fill-opacity="0.0" d="m149.26004 248.77428l-60.220474 52.755905" fill-rule="evenodd"></path><path stroke="#595959" stroke-width="1.0" stroke-linejoin="round" stroke-linecap="butt" d="m149.26004 248.77428l-55.70735 48.8022" fill-rule="evenodd"></path><path fill="#595959" stroke="#595959" stroke-width="1.0" stroke-linecap="butt" d="m92.46427 296.33408l-2.3250809 4.232788l4.5018997 -1.7479553z" fill-rule="evenodd"></path><path fill="#000000" fill-opacity="0.0" d="m149.26004 248.77428l60.220474 52.755905" fill-rule="evenodd"></path><path stroke="#595959" stroke-width="1.0" stroke-linejoin="round" stroke-linecap="butt" d="m149.26004 248.77428l55.70735 48.8022" fill-rule="evenodd"></path><path fill="#595959" stroke="#595959" stroke-width="1.0" stroke-linecap="butt" d="m203.879 298.8189l4.501892 1.7479553l-2.3250732 -4.232788z" fill-rule="evenodd"></path><path fill="#000000" fill-opacity="0.0" d="m390.1221 248.77428l-60.22046 52.755905" fill-rule="evenodd"></path><path stroke="#595959" stroke-width="1.0" stroke-linejoin="round" stroke-linecap="butt" d="m390.12213 248.77428l-55.707367 48.8022" fill-rule="evenodd"></path><path fill="#595959" stroke="#595959" stroke-width="1.0" stroke-linecap="butt" d="m333.32635 296.33408l-2.3251038 4.232788l4.5019226 -1.7479553z" fill-rule="evenodd"></path><path fill="#000000" fill-opacity="0.0" d="m390.1221 248.77428l60.22049 52.755905" fill-rule="evenodd"></path><path stroke="#595959" stroke-width="1.0" stroke-linejoin="round" stroke-linecap="butt" d="m390.12213 248.77428l55.707336 48.8022" fill-rule="evenodd"></path><path fill="#595959" stroke="#595959" stroke-width="1.0" stroke-linecap="butt" d="m444.74106 298.8189l4.5019226 1.7479553l-2.3251038 -4.232788z" fill-rule="evenodd"></path><path fill="#000000" fill-opacity="0.0" d="m89.044525 352.7743l-28.377953 18.992126" fill-rule="evenodd"></path><path stroke="#595959" stroke-width="1.0" stroke-linejoin="round" stroke-linecap="butt" d="m89.044525 352.7743l-23.391624 15.654968" fill-rule="evenodd"></path><path fill="#595959" stroke="#595959" stroke-width="1.0" stroke-linecap="butt" d="m64.73423 367.05658l-2.8527374 3.8967285l4.6900864 -1.1513672z" fill-rule="evenodd"></path><path fill="#000000" fill-opacity="0.0" d="m89.044525 352.7743l28.377953 18.992126" fill-rule="evenodd"></path><path stroke="#595959" stroke-width="1.0" stroke-linejoin="round" stroke-linecap="butt" d="m89.044525 352.7743l23.391624 15.654968" fill-rule="evenodd"></path><path fill="#595959" stroke="#595959" stroke-width="1.0" stroke-linecap="butt" d="m111.51747 369.80194l4.6900864 1.1513672l-2.8527374 -3.8967285z" fill-rule="evenodd"></path><path fill="#000000" fill-opacity="0.0" d="m209.47498 352.7743l-28.37796 18.992126" fill-rule="evenodd"></path><path stroke="#595959" stroke-width="1.0" stroke-linejoin="round" stroke-linecap="butt" d="m209.47496 352.7743l-23.391602 15.654968" fill-rule="evenodd"></path><path fill="#595959" stroke="#595959" stroke-width="1.0" stroke-linecap="butt" d="m185.16467 367.05658l-2.8527374 3.8967285l4.6900787 -1.1513672z" fill-rule="evenodd"></path><path fill="#000000" fill-opacity="0.0" d="m209.47498 352.7743l28.377945 18.992126" fill-rule="evenodd"></path><path stroke="#595959" stroke-width="1.0" stroke-linejoin="round" stroke-linecap="butt" d="m209.47496 352.7743l23.391617 15.654968" fill-rule="evenodd"></path><path fill="#595959" stroke="#595959" stroke-width="1.0" stroke-linecap="butt" d="m231.9479 369.80194l4.690094 1.1513672l-2.8527374 -3.8967285z" fill-rule="evenodd"></path><path fill="#000000" fill-opacity="0.0" d="m329.90674 352.7743l-28.37796 18.992126" fill-rule="evenodd"></path><path stroke="#595959" stroke-width="1.0" stroke-linejoin="round" stroke-linecap="butt" d="m329.9067 352.7743l-23.391602 15.654968" fill-rule="evenodd"></path><path fill="#595959" stroke="#595959" stroke-width="1.0" stroke-linecap="butt" d="m305.59644 367.05658l-2.8527527 3.8967285l4.690094 -1.1513672z" fill-rule="evenodd"></path><path fill="#000000" fill-opacity="0.0" d="m329.90674 352.7743l28.37793 18.992126" fill-rule="evenodd"></path><path stroke="#595959" stroke-width="1.0" stroke-linejoin="round" stroke-linecap="butt" d="m329.9067 352.7743l23.391632 15.654968" fill-rule="evenodd"></path><path fill="#595959" stroke="#595959" stroke-width="1.0" stroke-linecap="butt" d="m352.3797 369.80194l4.6900635 1.1513672l-2.8527222 -3.8967285z" fill-rule="evenodd"></path><path fill="#000000" fill-opacity="0.0" d="m450.3372 352.7743l-28.37796 18.992126" fill-rule="evenodd"></path><path stroke="#595959" stroke-width="1.0" stroke-linejoin="round" stroke-linecap="butt" d="m450.3372 352.7743l-23.391602 15.654968" fill-rule="evenodd"></path><path fill="#595959" stroke="#595959" stroke-width="1.0" stroke-linecap="butt" d="m426.0269 367.05658l-2.8527222 3.8967285l4.690094 -1.1513672z" fill-rule="evenodd"></path><path fill="#000000" fill-opacity="0.0" d="m450.3372 352.7743l28.37793 18.992126" fill-rule="evenodd"></path><path stroke="#595959" stroke-width="1.0" stroke-linejoin="round" stroke-linecap="butt" d="m450.3372 352.7743l23.391602 15.654968" fill-rule="evenodd"></path><path fill="#595959" stroke="#595959" stroke-width="1.0" stroke-linecap="butt" d="m472.81012 369.80194l4.690094 1.1513672l-2.8527222 -3.8967285z" fill-rule="evenodd"></path><path fill="#000000" fill-opacity="0.0" d="m561.68243 168.89874l0 0c0 -30.487885 24.715271 -55.2032 55.203186 -55.2032l220.80621 0l0 0c14.640747 0 28.681946 5.8160324 39.034546 16.16864c10.3526 10.352615 16.16864 24.393753 16.16864 39.03456l0 222.318c0 30.487885 -24.715332 55.203217 -55.203186 55.203217l-220.80621 0c-30.487915 0 -55.203186 -24.715332 -55.203186 -55.203217z" fill-rule="evenodd"></path><path stroke="#ff9900" stroke-width="3.0" stroke-linejoin="round" stroke-linecap="butt" d="m561.68243 168.89874l0 0c0 -30.487885 24.715271 -55.2032 55.203186 -55.2032l220.80621 0l0 0c14.640747 0 28.681946 5.8160324 39.034546 16.16864c10.3526 10.352615 16.16864 24.393753 16.16864 39.03456l0 222.318c0 30.487885 -24.715332 55.203217 -55.203186 55.203217l-220.80621 0c-30.487915 0 -55.203186 -24.715332 -55.203186 -55.203217z" fill-rule="evenodd"></path></g></svg>

